<?xml version="1.0" encoding="UTF-8" standalone="no"?>
<!DOCTYPE svg PUBLIC "-//W3C//DTD SVG 1.1//EN" "http://www.w3.org/Graphics/SVG/1.1/DTD/svg11.dtd">
<svg width="100%" height="100%" viewBox="0 0 479 502" version="1.1" xmlns="http://www.w3.org/2000/svg" xmlns:xlink="http://www.w3.org/1999/xlink" xml:space="preserve" xmlns:serif="http://www.serif.com/" style="fill-rule:evenodd;clip-rule:evenodd;stroke-linejoin:round;stroke-miterlimit:2;">
    <g transform="matrix(1,0,0,1,-16.9967,-5.17905)">
        <path d="M224.967,236.574C221.675,236.574 218.967,239.282 218.967,242.574C218.967,246.6 215.655,249.912 211.629,249.912C207.603,249.912 204.291,246.6 204.291,242.574C204.291,239.282 201.583,236.574 198.291,236.574C194.999,236.574 192.291,239.282 192.291,242.574C192.291,253.183 201.02,261.912 211.629,261.912C222.238,261.912 230.967,253.183 230.967,242.574C230.967,239.282 228.259,236.574 224.967,236.574Z" style="fill:white;fill-rule:nonzero;"/>
        <path d="M300.371,261.912C310.975,261.9 319.697,253.178 319.709,242.574C319.709,239.282 317.001,236.574 313.709,236.574C310.417,236.574 307.709,239.282 307.709,242.574C307.709,246.6 304.397,249.912 300.371,249.912C296.345,249.912 293.033,246.6 293.033,242.574C293.033,239.282 290.325,236.574 287.033,236.574C283.741,236.574 281.033,239.282 281.033,242.574C281.045,253.178 289.767,261.9 300.371,261.912Z" style="fill:white;fill-rule:nonzero;"/>
        <path d="M102.973,153.327C102.259,153.038 101.496,152.89 100.725,152.89C98.284,152.89 96.076,154.38 95.162,156.643C86.437,178.245 81.971,201.332 82.011,224.629C82.011,227.921 84.719,230.629 88.011,230.629C91.303,230.629 94.011,227.921 94.011,224.629C93.972,202.872 98.141,181.311 106.289,161.137C107.521,158.085 106.025,154.56 102.973,153.327Z" style="fill:white;fill-rule:nonzero;"/>
        <path d="M97.067,256.869C96.555,254.022 94.054,251.93 91.162,251.93C87.87,251.93 85.162,254.639 85.162,257.93C85.162,258.335 85.203,258.739 85.284,259.136C86.569,265.814 88.23,272.415 90.259,278.906C91.04,281.403 93.369,283.115 95.986,283.115C99.277,283.115 101.986,280.406 101.986,277.114C101.986,276.507 101.893,275.903 101.712,275.323C99.818,269.264 98.268,263.103 97.067,256.869Z" style="fill:white;fill-rule:nonzero;"/>
        <path d="M407.747,389.248C411.103,386.248 414.389,383.154 417.608,379.925C502.53,294.602 502.504,154.626 417.551,69.334C376.494,28.272 320.746,5.179 262.68,5.179C142.535,5.179 43.671,104.043 43.671,224.188C43.671,224.335 43.671,224.482 43.671,224.629C43.454,282.838 66.517,338.783 107.691,379.929C110.908,383.154 114.291,386.252 117.681,389.246C91.423,396.311 73.027,420.287 73,447.479L73,501C72.998,501.059 72.997,501.119 72.997,501.178C72.997,504.359 75.605,506.982 78.786,507L446.554,507C449.867,507 453,504.313 453,501L453,447.479C452.955,420.11 434.257,396.05 407.747,389.248ZM55.555,224.629C55.555,110.142 148.473,17 262.612,17C376.751,17 469.712,110.142 469.712,224.629C469.927,286.305 442.49,344.94 395,384.294L395,368.813C394.974,368.386 394.903,367.962 394.788,367.55L394.549,366.621C393.944,363.867 391.483,361.888 388.663,361.888C387.461,361.888 386.286,362.248 385.29,362.921C364.191,377.238 340.736,387.732 316,393.921L316,350.529C330.048,338.048 339.778,321.425 343.782,303.065L349.849,275.346C362.03,275.138 371.938,265.06 371.938,252.877C371.938,245.276 368.081,238.173 361.707,234.032C370.3,209.569 372.756,183.366 368.859,157.732C366.024,139.158 346.986,110.444 343.601,105.932C342.445,104.391 341.812,103.543 324.546,97.587C324.511,97.575 324.478,97.563 324.446,97.552C322.34,96.874 320.905,94.898 320.91,92.686C320.92,87.315 318.393,82.243 314.098,79.017C296.034,65.445 274.05,58.084 251.455,58.043C190,58.049 140,112.517 140,179.467C139.964,194.445 142.513,209.318 147.535,223.43C135.383,229.075 127.574,241.311 127.574,254.71C127.574,271.351 139.618,285.737 156,288.663L156,317.684C156,328.684 164.878,338 175.852,338L186.152,338C188.975,341 191.998,344.964 194.998,348.259L194.998,389.737C174.307,382.986 154.745,373.169 136.967,360.614C135.831,359.154 134.081,358.298 132.232,358.298C130.297,358.298 128.478,359.234 127.352,360.807L127.088,361.013C126.223,362.461 125.841,364.148 125.998,365.827L125.998,380.634C81.255,341.161 55.578,284.295 55.555,224.629ZM262.631,432.259C217.653,432.245 173.885,417.56 138,390.444L138,375.934C212.31,423.497 307.615,424.593 383,378.752L383,393.59C347.919,418.758 305.806,432.287 262.631,432.259ZM383,408.306L383,424.747C308.482,473.597 211.28,472.388 138,421.7L138,405.414C175,430.659 217.518,444.259 262.631,444.259C305.398,444.278 347.249,431.777 383,408.306ZM238.63,318.739C233.565,318.739 229.173,321 226.993,326L192.447,326C187.628,318.218 184.163,309.676 182.2,300.736L178,280.7L178,226.236C178.024,224.161 176.856,222.246 175,221.318L175,202.573C175.074,191.883 178.552,181.491 184.926,172.909L184,187.449C183.993,187.568 183.989,187.687 183.989,187.806C183.989,191.127 186.722,193.86 190.043,193.86C190.534,193.86 191.023,193.8 191.5,193.682C197.682,192.137 214.127,185.156 235.444,153.782C249.427,164.436 267.988,167.087 284.394,160.773C303.357,153.493 324.755,162.001 333.178,180.146C337.054,188.524 339.042,197.653 339,206.885L339,236.385C339,239.698 341.81,241.997 345.123,241.997L349.523,241.997C355.283,241.997 360.023,246.737 360.023,252.497C360.023,258.257 355.283,262.997 349.523,262.997L345.123,262.997C342.273,263.074 339.831,265.121 339.257,267.914L332.3,300.462C324.684,335.78 293.179,361.215 257.049,361.215C239.57,361.215 222.603,355.263 208.955,344.343C206.44,342.311 204.067,340 201.843,338L226.995,338C229.326,342.246 233.789,344.905 238.632,344.934C245.841,344.879 251.74,338.929 251.732,331.72C251.722,324.595 245.857,318.739 238.732,318.739C238.698,318.739 238.664,318.739 238.63,318.739ZM163,202.573L163,220L161.992,220C161.047,220 160.113,220.167 159.192,220.242C154.4,207.183 151.965,193.377 152,179.467C152,119.134 196.613,70.049 251.451,70.049C271.473,70.095 290.951,76.627 306.951,88.663C308.202,89.621 308.93,91.116 308.911,92.692C308.897,100.073 313.672,106.666 320.69,108.954C326.026,110.795 332.371,113.114 334.758,114.154C340.921,122.733 354.919,146.21 356.958,159.546C360.458,182.495 358.008,205.988 351.008,227.952L351.008,206.885C351.055,195.908 348.689,185.053 344.077,175.092C333.008,151.248 304.912,140.038 280.077,149.569C266.755,154.699 251.634,152.056 240.841,142.712C239.172,141.268 237.038,140.473 234.832,140.473C231.745,140.473 228.859,142.029 227.161,144.606C218.784,157.299 207.249,171.355 196.751,178.228L198.156,157.846C198.317,155.519 197.107,153.301 195.064,152.176C192.965,151.055 190.403,151.219 188.464,152.598C172.557,164.278 163.1,182.839 163,202.573ZM166,232L166,277L161.992,277C149.649,277 139.492,266.843 139.492,254.5C139.492,242.157 149.649,232 161.992,232L166,232ZM168,291.584L170.436,303.252C172.107,311.171 174.854,318.825 178.6,326L175.85,326C171.493,326 167.998,322.063 167.998,317.684L168,291.584ZM304,359.578L304,396.557C271.825,402.677 238.686,401.553 207,393.266L207,358C221.713,367.856 239.013,373.156 256.722,373.233C273.451,373.223 289.842,368.489 304,359.578ZM441,495L376,495L376,468.815C376,465.523 373.292,462.815 370,462.815C366.708,462.815 364,465.523 364,468.815L364,495L162,495L162,468.815C162,465.523 159.292,462.815 156,462.815C152.708,462.815 150,465.523 150,468.815L150,495L85,495L85,447.479C84.808,423.663 102.428,403.147 126,399.74L126,423.38C126,425.664 126.451,428.137 128.475,429.586C206.949,485.681 312.669,486.957 392.475,432.774C394.641,431.299 395.002,428.657 395.002,426.26L395.002,399.776C395.175,399.645 395.34,399.505 395.513,399.376C420.881,401.157 441.002,422.044 441.002,447.476L441,495Z" style="fill:white;fill-rule:nonzero;"/>
        <path d="M431.263,55.69C441.231,59.056 449.062,66.912 452.398,76.89C453.211,79.336 455.514,80.997 458.091,80.997C460.669,80.997 462.972,79.336 463.785,76.89C467.121,66.912 474.952,59.056 484.92,55.69C487.361,54.873 489.016,52.574 489.016,50C489.016,47.426 487.361,45.127 484.92,44.31C474.952,40.944 467.121,33.088 463.785,23.11C462.972,20.664 460.669,19.003 458.092,19.003C455.514,19.003 453.211,20.664 452.398,23.11C449.062,33.088 441.231,40.944 431.263,44.31C428.822,45.127 427.167,47.426 427.167,50C427.167,52.574 428.822,54.873 431.263,55.69ZM458.092,38.308C461.243,42.878 465.196,46.84 469.76,50C465.196,53.16 461.243,57.122 458.092,61.692C454.941,57.122 450.987,53.16 446.423,50C450.987,46.84 454.941,42.878 458.092,38.308Z" style="fill:white;fill-rule:nonzero;"/>
        <path d="M77.465,370.869C78.036,368.359 76.931,365.748 74.732,364.411C65.752,358.912 59.85,349.51 58.8,339.033C58.499,335.977 55.899,333.621 52.829,333.621C50.731,333.621 48.779,334.721 47.694,336.517C42.239,345.504 32.868,351.425 22.409,352.492C19.353,352.793 16.997,355.393 16.997,358.463C16.997,360.557 18.093,362.505 19.883,363.592C28.863,369.091 34.766,378.493 35.816,388.97C36.117,392.026 38.717,394.382 41.787,394.382C43.885,394.382 45.837,393.282 46.922,391.486C52.377,382.499 61.749,376.578 72.207,375.511C74.769,375.257 76.895,373.38 77.465,370.869ZM44.729,375.4C42.665,370.24 39.684,365.497 35.929,361.4C41.075,359.335 45.804,356.353 49.885,352.6C51.949,357.76 54.93,362.503 58.685,366.6C53.539,368.665 48.811,371.647 44.729,375.4Z" style="fill:white;fill-rule:nonzero;"/>
        <path d="M486,445.25C482.708,445.25 480,447.958 480,451.25L480,451.418C480,454.71 482.708,457.418 486,457.418C489.292,457.418 492,454.71 492,451.418L492,451.25C492,447.958 489.292,445.25 486,445.25Z" style="fill:white;fill-rule:nonzero;"/>
        <path d="M486.436,433.479C489.728,433.479 492.436,430.771 492.436,427.479C492.444,404.228 479.003,382.96 458,372.987C457.197,372.606 456.319,372.409 455.431,372.409C452.139,372.409 449.43,375.117 449.43,378.409C449.43,380.723 450.77,382.84 452.861,383.831C469.691,391.811 480.457,408.853 480.436,427.479C480.436,430.771 483.144,433.479 486.436,433.479Z" style="fill:white;fill-rule:nonzero;"/>
        <ellipse cx="476.038" cy="103" rx="10.985" ry="11" style="fill:white;"/>
        <ellipse cx="487.006" cy="475" rx="7.994" ry="8" style="fill:white;"/>
        <ellipse cx="42.322" cy="75" rx="10.985" ry="11" style="fill:white;"/>
        <ellipse cx="42.322" cy="432" rx="10.985" ry="11" style="fill:white;"/>
        <path d="M427.81,192.879C428.696,197.548 429.395,202.323 429.884,207.07C430.198,210.114 432.792,212.455 435.852,212.455C439.144,212.455 441.853,209.747 441.853,206.455C441.853,206.25 441.842,206.044 441.821,205.84C441.297,200.755 440.549,195.64 439.599,190.64C439.055,187.83 436.571,185.781 433.709,185.781C430.417,185.781 427.709,188.49 427.709,191.781C427.709,192.15 427.743,192.518 427.81,192.88L427.81,192.879Z" style="fill:white;fill-rule:nonzero;"/>
        <path d="M399.2,126.216C403.831,132.67 408.002,139.442 411.682,146.481C414.076,151.065 416.288,155.824 418.254,160.626C419.131,162.961 421.377,164.516 423.871,164.516C427.162,164.516 429.871,161.807 429.871,158.516C429.871,157.677 429.695,156.847 429.354,156.08C427.248,150.935 424.879,145.835 422.312,140.925C413.59,124.232 402.317,109.001 388.9,95.782C387.779,94.685 386.272,94.071 384.704,94.071C381.412,94.071 378.704,96.779 378.704,100.071C378.704,101.669 379.343,103.203 380.477,104.329C387.327,111.081 393.59,118.403 399.2,126.216Z" style="fill:white;fill-rule:nonzero;"/>
    </g>
</svg>
