<?xml version="1.0" encoding="UTF-8" standalone="no"?>
<!DOCTYPE svg PUBLIC "-//W3C//DTD SVG 1.1//EN" "http://www.w3.org/Graphics/SVG/1.1/DTD/svg11.dtd">
<svg width="100%" height="100%" viewBox="0 0 30 17" version="1.1" xmlns="http://www.w3.org/2000/svg" xmlns:xlink="http://www.w3.org/1999/xlink" xml:space="preserve" xmlns:serif="http://www.serif.com/" style="fill-rule:evenodd;clip-rule:evenodd;stroke-linejoin:round;stroke-miterlimit:2;">
    <g transform="matrix(1,0,0,1,0.024,0.0073738)">
        <g transform="matrix(1,0,0,1,-7.7,-14.0987)">
            <path d="M37.324,21.192C37.324,18.725 35.458,16.709 33.068,16.425C33.016,16.399 32.961,16.377 32.9,16.37L12.782,14.094C12.506,14.066 12.26,14.261 12.229,14.534C12.198,14.808 12.396,15.056 12.67,15.088L30.059,17.056C28.937,17.722 28.105,18.817 27.807,20.124L8.176,20.124C7.9,20.124 7.676,20.348 7.676,20.624C7.676,20.9 7.9,21.124 8.176,21.124L27.687,21.124C27.687,21.147 27.68,21.168 27.68,21.191C27.68,21.682 27.776,22.148 27.912,22.595L18.225,24.111C17.952,24.154 17.766,24.41 17.808,24.682C17.847,24.929 18.059,25.105 18.302,25.105C18.327,25.105 18.354,25.103 18.38,25.099L28.318,23.543C28.845,24.477 29.655,25.227 30.651,25.643L14.243,29.923C13.975,29.992 13.815,30.266 13.885,30.532C13.944,30.758 14.147,30.906 14.368,30.906C14.41,30.906 14.452,30.901 14.494,30.889L33.247,26C33.304,25.985 33.353,25.957 33.399,25.926C35.63,25.504 37.324,23.545 37.324,21.192ZM32.503,25.017C30.395,25.017 28.68,23.301 28.68,21.193C28.68,21.17 28.687,21.149 28.687,21.126L32.296,21.126C32.572,21.126 32.796,20.902 32.796,20.626C32.796,20.35 32.572,20.126 32.296,20.126L28.85,20.126C29.316,18.539 30.768,17.369 32.503,17.369C34.61,17.369 36.324,19.085 36.324,21.193C36.324,23.301 34.61,25.017 32.503,25.017Z" style="fill:rgb(68,68,68);fill-rule:nonzero;"/>
            <path d="M34.657,20.692C34.381,20.692 34.157,20.916 34.157,21.192C34.157,22.105 33.415,22.848 32.503,22.848C32.227,22.848 32.003,23.072 32.003,23.348C32.003,23.624 32.227,23.848 32.503,23.848C33.967,23.848 35.157,22.657 35.157,21.192C35.157,20.916 34.934,20.692 34.657,20.692Z" style="fill:rgb(68,68,68);fill-rule:nonzero;"/>
        </g>
    </g>
</svg>
