<?xml version="1.0" encoding="UTF-8" standalone="no"?>
<!DOCTYPE svg PUBLIC "-//W3C//DTD SVG 1.1//EN" "http://www.w3.org/Graphics/SVG/1.1/DTD/svg11.dtd">
<svg width="100%" height="100%" viewBox="0 0 75 98" version="1.1" xmlns="http://www.w3.org/2000/svg" xmlns:xlink="http://www.w3.org/1999/xlink" xml:space="preserve" xmlns:serif="http://www.serif.com/" style="fill-rule:evenodd;clip-rule:evenodd;stroke-linejoin:round;stroke-miterlimit:2;">
    <g transform="matrix(1,0,0,1,-13.345,-1.045)">
        <path d="M40.543,7.088C40.781,7.18 41.029,7.227 41.283,7.227C41.912,7.227 42.49,6.941 42.869,6.465L48.018,8.486C47.951,9.352 48.449,10.186 49.305,10.52C49.541,10.615 49.787,10.662 50.043,10.662C50.884,10.662 51.626,10.156 51.936,9.371C52.083,8.988 52.116,8.576 52.026,8.184C52.358,7.957 52.616,7.635 52.766,7.252C53.173,6.209 52.659,5.029 51.616,4.619C51.379,4.527 51.129,4.477 50.877,4.477C50.232,4.477 49.647,4.777 49.268,5.266L44.139,3.256C44.217,2.381 43.715,1.521 42.856,1.184C42.618,1.092 42.37,1.045 42.116,1.045C41.274,1.045 40.532,1.551 40.223,2.334C40.073,2.719 40.043,3.129 40.133,3.522C39.803,3.749 39.545,4.069 39.393,4.454C39.196,4.958 39.207,5.511 39.424,6.007C39.64,6.506 40.04,6.889 40.543,7.088ZM40.456,4.871C40.555,4.619 40.762,4.428 41.02,4.346C41.184,4.295 41.315,4.17 41.376,4.01C41.44,3.85 41.427,3.67 41.341,3.52C41.206,3.285 41.186,3.004 41.286,2.752C41.417,2.408 41.745,2.186 42.114,2.186C42.225,2.186 42.333,2.207 42.438,2.248C42.661,2.336 42.833,2.502 42.928,2.721C43.026,2.941 43.03,3.182 42.944,3.404C42.827,3.697 42.971,4.029 43.264,4.141L49.307,6.51C49.446,6.566 49.604,6.561 49.743,6.5C49.882,6.439 49.989,6.326 50.046,6.186C50.182,5.842 50.504,5.621 50.876,5.621C50.985,5.621 51.096,5.642 51.2,5.682C51.657,5.865 51.882,6.381 51.704,6.838C51.604,7.09 51.401,7.279 51.142,7.361C50.978,7.414 50.844,7.537 50.783,7.697C50.722,7.857 50.732,8.039 50.818,8.186C50.953,8.422 50.974,8.703 50.875,8.955C50.742,9.299 50.415,9.52 50.045,9.52C49.935,9.52 49.826,9.5 49.722,9.458C49.269,9.282 49.043,8.782 49.211,8.325C49.316,8.034 49.17,7.712 48.884,7.597L42.841,5.228C42.773,5.202 42.701,5.19 42.634,5.19C42.406,5.19 42.196,5.321 42.107,5.54C41.965,5.872 41.644,6.087 41.285,6.087C41.176,6.087 41.066,6.066 40.963,6.025C40.74,5.939 40.567,5.771 40.471,5.553C40.374,5.334 40.37,5.092 40.456,4.871ZM61.08,19.312L63.445,21.032L62.543,23.808C62.461,24.06 62.55,24.335 62.765,24.491C62.978,24.647 63.271,24.647 63.484,24.491L65.845,22.776L68.207,24.491C68.314,24.569 68.439,24.608 68.566,24.608C68.693,24.608 68.818,24.569 68.922,24.491C69.135,24.337 69.225,24.06 69.145,23.808L68.246,21.032L70.609,19.312C70.822,19.159 70.91,18.882 70.83,18.628C70.748,18.378 70.515,18.208 70.246,18.208L67.328,18.208L66.426,15.431C66.344,15.179 66.111,15.009 65.844,15.009C65.58,15.009 65.346,15.179 65.262,15.431L64.361,18.208L61.443,18.208C61.176,18.208 60.941,18.378 60.861,18.628C60.777,18.883 60.867,19.158 61.08,19.312ZM64.804,19.43C65.069,19.43 65.304,19.26 65.386,19.008L65.843,17.598L66.302,19.008C66.384,19.26 66.618,19.43 66.882,19.43L68.368,19.43L67.165,20.303C66.952,20.459 66.862,20.736 66.944,20.988L67.403,22.398L66.202,21.527C66.096,21.449 65.969,21.41 65.844,21.41C65.719,21.41 65.594,21.449 65.488,21.527L64.287,22.398L64.746,20.988C64.826,20.736 64.736,20.461 64.523,20.303L63.322,19.43L64.804,19.43ZM39.417,25.631C41.395,25.631 43.003,24.025 43.003,22.047C43.003,20.07 41.395,18.463 39.417,18.463C37.442,18.463 35.835,20.07 35.835,22.047C35.834,24.024 37.442,25.631 39.417,25.631ZM39.417,19.686C40.721,19.686 41.78,20.748 41.78,22.047C41.78,23.346 40.718,24.408 39.417,24.408C38.116,24.408 37.059,23.346 37.059,22.047C37.059,20.748 38.116,19.686 39.417,19.686ZM31.825,26.281C32.505,25.506 32.548,24.133 31.928,23.156C31.54,22.549 30.973,22.199 30.366,22.199C29.915,22.199 29.493,22.398 29.178,22.76C28.497,23.535 28.454,24.908 29.077,25.887C29.462,26.492 30.03,26.84 30.637,26.84C31.086,26.84 31.509,26.643 31.825,26.281ZM30.905,25.477C30.823,25.572 30.731,25.621 30.634,25.621C30.46,25.621 30.259,25.473 30.106,25.229C29.778,24.713 29.772,23.934 30.095,23.566C30.177,23.471 30.27,23.422 30.366,23.422C30.54,23.422 30.743,23.57 30.895,23.811C31.222,24.328 31.231,25.107 30.905,25.477ZM56.352,94.41C56.694,93.877 56.983,93.232 57.249,92.424C57.327,92.182 57.393,91.939 57.44,91.695C57.833,89.754 57.245,87.844 55.786,86.326C54.618,85.113 53.112,84.311 51.655,84.125C51.382,84.092 51.12,84.242 51.013,84.494C50.906,84.746 50.981,85.039 51.196,85.209C52.187,85.998 53.575,87.223 54.157,88.713C54.636,89.93 54.646,91.176 54.187,91.967C54.179,91.984 54.169,91.996 54.163,92.012L50.858,88.387L52.226,87.139C52.394,86.988 52.462,86.754 52.409,86.535C52.354,86.316 52.181,86.145 51.964,86.094L49.291,85.436C49.092,85.389 48.885,85.441 48.733,85.58L45.004,88.975C44.885,89.084 44.811,89.238 44.805,89.4C44.797,89.561 44.854,89.719 44.965,89.838L46.506,91.527C46.733,91.777 47.116,91.797 47.366,91.568L48.793,90.268L51.966,93.756C51.796,93.785 51.62,93.799 51.444,93.799C50.776,93.799 49.807,93.584 48.991,92.559C48.743,92.247 48.386,92.068 48.015,92.068C47.741,92.068 47.464,92.168 47.22,92.357L44.046,94.828C43.749,95.059 43.573,95.39 43.556,95.754C43.534,96.211 43.763,96.645 43.999,96.871C44.2,97.061 44.571,97.268 45.011,97.268C45.395,97.268 45.741,97.117 46.015,96.826L47.829,94.91C48.878,96.059 50.415,96.75 52.002,96.75C52.787,96.75 53.553,96.582 54.246,96.258L55.752,97.91C56.014,98.201 56.394,98.367 56.785,98.367C57.133,98.367 57.467,98.238 57.725,98.002C58.002,97.752 58.163,97.406 58.18,97.033C58.198,96.66 58.069,96.303 57.817,96.029L56.352,94.41ZM45.132,95.982C45.07,96.043 45.037,96.043 45.015,96.043C44.947,96.043 44.869,96.004 44.851,95.986C44.814,95.945 44.773,95.842 44.779,95.809C44.781,95.805 44.789,95.797 44.802,95.787L46.763,94.26L45.132,95.982ZM47.925,93.365L47.912,93.365L47.974,93.316C47.99,93.303 48.002,93.295 48.008,93.291C48.017,93.297 48.027,93.307 48.035,93.318C48.06,93.348 48.084,93.381 48.111,93.412C48.054,93.389 47.991,93.371 47.925,93.365ZM56.908,97.096C56.865,97.133 56.82,97.141 56.789,97.141C56.761,97.141 56.703,97.135 56.66,97.084L54.835,95.082C54.718,94.951 54.552,94.883 54.384,94.883C54.279,94.883 54.171,94.912 54.072,94.969C53.459,95.332 52.746,95.527 52.009,95.527C50.675,95.527 49.386,94.906 48.573,93.891C49.378,94.623 50.376,95.018 51.448,95.018C51.883,95.018 52.313,94.956 52.731,94.83C52.938,94.766 53.147,94.68 53.344,94.572C53.51,94.482 53.625,94.322 53.656,94.135C53.687,93.949 53.634,93.76 53.507,93.621L49.289,88.992C49.06,88.744 48.676,88.723 48.428,88.951L47,90.25L46.282,89.463L49.315,86.699L50.561,87.004L49.586,87.893C49.465,88.002 49.396,88.156 49.388,88.318C49.379,88.477 49.437,88.637 49.545,88.756L53.783,93.404C53.904,93.539 54.078,93.611 54.261,93.602C54.439,93.594 54.607,93.51 54.718,93.369C54.906,93.129 55.082,92.863 55.248,92.578C55.898,91.457 55.916,89.846 55.3,88.266C55.082,87.717 54.785,87.205 54.446,86.738C54.604,86.875 54.758,87.02 54.905,87.174C56.079,88.395 56.555,89.916 56.245,91.453C56.208,91.65 56.153,91.849 56.09,92.045C55.801,92.928 55.475,93.596 55.09,94.084C54.905,94.318 54.917,94.652 55.118,94.873L56.92,96.85C56.961,96.895 56.969,96.943 56.967,96.975C56.966,97.006 56.951,97.055 56.908,97.096ZM87.836,30.809C87.795,30.582 87.629,30.395 87.408,30.33L83.557,29.176C83.506,29.162 83.457,29.155 83.41,29.152L67.475,28.4L67.416,28.4C67.344,28.404 66.779,28.449 66.223,28.962C63.901,27.792 61.457,26.896 58.934,26.288C59.09,25.294 59.17,24.278 59.17,23.267C59.17,18.241 57.27,13.462 53.816,9.814C53.584,9.571 53.199,9.558 52.955,9.792C52.707,10.024 52.697,10.411 52.93,10.655C56.166,14.075 57.949,18.554 57.949,23.267C57.949,24.192 57.879,25.116 57.74,26.024C56,25.671 54.227,25.458 52.436,25.382C52.592,24.413 52.645,23.423 52.58,22.421C52.4,19.698 51.395,17.161 49.711,15.089C49.69,15.052 49.664,15.017 49.636,14.985C49.634,14.983 49.519,14.849 49.492,14.462C49.48,14.3 49.408,14.15 49.283,14.042L47.43,12.417C47.307,12.31 47.152,12.257 46.99,12.267C46.596,12.292 46.486,12.245 46.455,12.222C46.423,12.196 46.384,12.173 46.347,12.157C45.808,11.829 45.249,11.544 44.679,11.303C44.335,10.947 43.849,10.635 43.255,10.426C42.816,10.27 42.363,10.188 41.945,10.188C41.592,10.188 41.281,10.248 41.019,10.354C37.943,10.022 34.785,10.785 32.172,12.6C31.584,12.68 31.021,12.912 30.519,13.295C29.752,13.881 29.267,14.723 29.105,15.6C27.666,17.565 26.855,19.828 26.654,22.125C26.642,22.197 26.594,22.342 26.421,22.537C26.31,22.658 26.255,22.818 26.265,22.979L26.41,25.43C26.42,25.592 26.492,25.746 26.615,25.852C26.843,26.047 26.918,26.158 26.943,26.219C26.949,26.242 26.976,26.369 26.99,26.407C27.433,28.208 28.265,29.928 29.476,31.429C29.484,31.456 29.49,31.483 29.499,31.509C29.632,31.874 29.865,32.243 30.171,32.575C28.829,33.632 27.573,34.786 26.409,36.028C23.075,32.587 21.243,28.069 21.243,23.265C21.243,13.991 28.175,6.159 37.366,5.044C37.7,5.003 37.937,4.698 37.898,4.362C37.855,4.028 37.55,3.788 37.216,3.831C27.415,5.018 20.02,13.373 20.02,23.264C20.02,28.414 21.996,33.258 25.586,36.934C25.012,37.594 24.461,38.277 23.936,38.979L23.5,38.979L22.614,36.258C22.534,36.006 22.299,35.836 22.034,35.836C21.768,35.836 21.534,36.006 21.454,36.258L20.569,38.979L17.711,38.979C17.446,38.979 17.209,39.15 17.129,39.402C17.047,39.654 17.137,39.928 17.35,40.086L19.663,41.768L18.78,44.488C18.698,44.74 18.786,45.016 19.001,45.172C19.108,45.25 19.235,45.289 19.36,45.289C19.487,45.289 19.612,45.25 19.719,45.172L20.569,44.555C19.383,47.033 18.507,49.642 17.96,52.34C17.946,52.402 17.946,52.463 17.954,52.525C16.358,53.938 14.872,55.408 13.503,56.92C13.276,57.17 13.296,57.557 13.548,57.785C13.665,57.889 13.811,57.941 13.958,57.941C14.122,57.941 14.29,57.873 14.409,57.74C19.786,51.799 27.044,46.551 35.395,42.566C44.172,38.381 53.838,35.645 64.133,34.438C64.499,34.395 64.876,34.354 65.256,34.313C65.26,34.348 65.266,34.381 65.27,34.417C64.776,34.515 64.29,34.614 63.823,34.712C48.948,37.87 35.632,44.358 25.318,53.476C21.086,57.216 17.484,61.312 14.617,65.646C14.431,65.927 14.51,66.306 14.791,66.493C14.895,66.56 15.012,66.597 15.127,66.597C15.324,66.597 15.521,66.499 15.637,66.323C18.447,62.077 21.975,58.062 26.127,54.392C36.285,45.415 49.408,39.026 64.078,35.911C64.535,35.812 65.01,35.718 65.496,35.622C65.506,35.671 65.517,35.72 65.525,35.768C53.545,39.131 42.9,44.69 34.738,51.85C26.508,59.072 21.248,67.527 19.533,76.301C19.471,76.631 19.687,76.953 20.016,77.016C20.055,77.024 20.094,77.031 20.131,77.031C20.42,77.031 20.676,76.828 20.734,76.537C20.848,75.945 20.982,75.354 21.13,74.768C25.802,83.666 34.302,90.119 44.159,92.16C44.202,92.168 44.241,92.172 44.284,92.172C44.566,92.172 44.821,91.973 44.88,91.684C44.95,91.356 44.734,91.033 44.404,90.963C38.466,89.734 33.04,86.842 28.706,82.752C28.757,82.709 28.802,82.658 28.837,82.598L29.919,80.76L30.731,80.76C31.046,80.76 31.3,80.506 31.3,80.19L31.3,78.455C32.946,80.434 34.988,82.166 37.368,83.58C39.921,85.096 42.747,86.172 45.726,86.783L46.784,85.82C43.622,85.272 40.626,84.188 37.952,82.598C34.056,80.285 31.107,77.086 29.427,73.348C28.417,71.098 27.905,68.727 27.905,66.299C27.905,65.233 28.007,64.166 28.206,63.117L29.985,64.34C29.903,64.988 29.862,65.645 29.862,66.299C29.862,75.512 37.852,83.17 48.251,84.533C48.521,84.371 48.829,84.285 49.146,84.285C49.288,84.285 49.427,84.303 49.564,84.336L49.862,84.408C49.883,84.289 49.921,84.17 49.966,84.055C50.044,83.873 50.148,83.711 50.273,83.572C48.107,83.459 46.03,83.059 44.093,82.422L44.093,76.317C44.876,77.469 45.685,78.361 46.519,78.992C46.573,79.055 46.64,79.104 46.714,79.141C46.722,79.164 46.728,79.186 46.735,79.205C47.546,81.008 49.423,82.174 51.518,82.174C53.686,82.174 55.442,80.707 56.218,79.25C56.239,79.217 56.249,79.18 56.261,79.145C57.22,78.471 58.151,77.457 59.04,76.104L59.04,82.395C57.345,82.961 55.538,83.342 53.659,83.51C54.241,83.754 54.808,84.072 55.343,84.453C65.475,82.895 73.181,75.348 73.181,66.299C73.181,65.645 73.14,64.987 73.06,64.34L74.837,63.117C75.036,64.164 75.136,65.229 75.136,66.299C75.136,75.754 67.278,83.692 56.77,85.723C57.061,86.045 57.325,86.379 57.55,86.725C62.198,85.729 66.325,83.615 69.518,80.742L69.518,85.873C66.208,88.158 62.481,89.832 58.585,90.758C58.26,90.836 58.057,91.166 58.135,91.494C58.202,91.772 58.452,91.963 58.729,91.963C58.778,91.963 58.825,91.957 58.87,91.947C63.766,90.783 68.413,88.479 72.333,85.291L76.13,85.291C76.446,85.291 76.7,85.035 76.7,84.721L76.7,82.58C76.7,82.264 76.446,82.01 76.13,82.01L75.815,82.01C81.606,75.754 84.784,67.664 84.784,59.1C84.784,56 84.364,52.947 83.541,49.994L84.567,50.74C84.783,50.895 85.069,50.895 85.285,50.74C85.498,50.586 85.59,50.307 85.51,50.056L84.541,47.079L87.074,45.239C87.287,45.085 87.377,44.806 87.295,44.554C87.213,44.304 86.979,44.134 86.713,44.134L83.584,44.134L82.617,41.155C82.535,40.905 82.301,40.733 82.037,40.733C81.77,40.733 81.537,40.905 81.453,41.155L80.797,43.176C79.707,41.143 78.412,39.234 76.94,37.471L84.372,34.004C84.417,33.983 84.46,33.957 84.499,33.924L87.622,31.396C87.789,31.258 87.871,31.027 87.836,30.809ZM41.946,11.404C42.227,11.404 42.538,11.463 42.845,11.572C43.698,11.873 44.03,12.379 44.015,12.486C43.993,12.523 43.808,12.631 43.427,12.631C43.149,12.631 42.837,12.574 42.53,12.465C41.669,12.16 41.348,11.662 41.362,11.551C41.386,11.512 41.569,11.404 41.946,11.404ZM31.261,14.262C31.669,13.95 32.136,13.785 32.608,13.785C33.212,13.785 33.745,14.064 34.067,14.553C34.681,15.486 34.374,16.859 33.378,17.617C32.971,17.928 32.507,18.092 32.034,18.092C31.43,18.092 30.895,17.814 30.573,17.322C29.959,16.395 30.265,15.02 31.261,14.262ZM29.821,29.838C29.03,28.658 28.47,27.361 28.151,26.014C28.143,25.979 28.137,25.945 28.127,25.91C27.489,23.117 27.873,20.127 29.311,17.543C29.379,17.699 29.457,17.854 29.553,17.998C30.106,18.836 31.01,19.316 32.034,19.316C32.774,19.316 33.497,19.064 34.12,18.588C35.614,17.447 36.049,15.336 35.09,13.879C34.811,13.457 34.442,13.125 34.012,12.9C35.905,11.881 38.032,11.414 40.145,11.506C40.118,12.32 40.897,13.18 42.124,13.615C42.562,13.768 43.016,13.85 43.432,13.85C44.309,13.85 44.956,13.494 45.169,12.891C45.171,12.889 45.171,12.883 45.171,12.881C45.393,12.998 45.61,13.123 45.827,13.258C45.833,13.262 45.841,13.266 45.848,13.271C45.645,13.525 45.674,13.893 45.922,14.111L49.979,17.668C50.301,18.266 50.57,18.891 50.785,19.537L48.135,17.213C47.883,16.99 47.496,17.016 47.275,17.271C47.049,17.525 47.078,17.912 47.332,18.133L51.266,21.582C51.309,21.885 51.346,22.187 51.366,22.496C51.374,22.611 51.378,22.725 51.38,22.842L48.31,20.15C48.056,19.926 47.671,19.955 47.448,20.207C47.224,20.461 47.251,20.848 47.505,21.07L51.335,24.426C51.302,24.775 51.255,25.119 51.189,25.459L47.762,22.455C47.51,22.232 47.123,22.258 46.904,22.512C46.678,22.766 46.705,23.154 46.961,23.373L47.881,24.182C47.674,24.12 47.457,24.086 47.239,24.086L47.194,24.088C46.485,24.102 45.832,24.449 45.401,25.041C44.625,26.109 44.807,27.693 45.807,28.57C46.203,28.916 46.69,29.119 47.196,29.154L48.84,30.592C48.721,30.742 48.6,30.889 48.471,31.033C48.409,31.107 48.338,31.179 48.271,31.254L44.594,28.031C44.34,27.807 43.955,27.834 43.734,28.088C43.512,28.34 43.537,28.727 43.793,28.949L47.02,31.779C46.666,31.848 46.313,31.926 45.963,32.012L42.85,29.283C42.596,29.059 42.211,29.088 41.988,29.34C41.766,29.594 41.793,29.982 42.047,30.203L44.556,32.402C44.234,32.502 43.912,32.607 43.595,32.719L40.963,30.412C40.709,30.189 40.322,30.215 40.101,30.469C39.877,30.721 39.904,31.109 40.158,31.33L42.307,33.215C42.012,33.338 41.717,33.469 41.428,33.605L38.803,31.305C38.549,31.08 38.162,31.107 37.943,31.361C37.719,31.615 37.746,32.002 38,32.223L40.242,34.189C39.981,34.324 39.723,34.463 39.469,34.609C39.444,34.605 39.416,34.605 39.391,34.603L36.059,31.684C35.807,31.461 35.42,31.488 35.201,31.742C34.975,31.994 35.002,32.383 35.258,32.603L37.815,34.842C37.77,34.859 37.727,34.873 37.686,34.889C37.152,34.801 36.625,34.67 36.113,34.51L33.797,32.482C33.82,31.818 33.428,31.025 32.688,30.377C32.076,29.838 31.367,29.529 30.746,29.529C30.372,29.533 30.059,29.641 29.821,29.838ZM49.647,26.896C49.679,26.422 49.591,25.943 49.388,25.51L50.848,26.791C50.756,27.09 50.654,27.387 50.535,27.676L49.647,26.896ZM49.995,28.828C49.853,29.09 49.706,29.346 49.546,29.596L48.604,28.768C48.821,28.621 49.013,28.432 49.175,28.207C49.192,28.186 49.202,28.166 49.216,28.145L49.995,28.828ZM48.186,27.49C47.979,27.775 47.667,27.939 47.335,27.939C47.073,27.939 46.821,27.838 46.608,27.652C46.077,27.189 45.973,26.322 46.38,25.76C46.587,25.475 46.882,25.316 47.21,25.309L47.231,25.309C47.493,25.309 47.745,25.41 47.958,25.596C48.489,26.062 48.593,26.928 48.186,27.49ZM32.554,32.48C32.544,32.486 32.505,32.501 32.425,32.501C32.202,32.501 31.819,32.384 31.399,32.05C31.36,32.022 31.323,31.989 31.288,31.958C30.661,31.409 30.555,30.866 30.6,30.776C30.61,30.769 30.649,30.755 30.729,30.755C30.966,30.755 31.409,30.899 31.868,31.3C32.493,31.85 32.6,32.391 32.554,32.48ZM20.526,43.074L20.964,41.72C21.046,41.468 20.956,41.194 20.741,41.038L19.589,40.2L21.013,40.2C21.278,40.2 21.511,40.028 21.595,39.776L22.034,38.422L22.473,39.776C22.555,40.028 22.79,40.2 23.057,40.2L24.479,40.2L23.327,41.038C23.114,41.192 23.024,41.468 23.106,41.72L23.544,43.075L22.393,42.237C22.286,42.159 22.159,42.12 22.034,42.12C21.907,42.12 21.782,42.159 21.673,42.237L20.526,43.074ZM19.466,51.223C20.115,48.615 21.084,46.098 22.361,43.723L24.349,45.168C24.564,45.324 24.855,45.324 25.07,45.168C25.283,45.014 25.373,44.736 25.291,44.484L24.408,41.764L26.722,40.082C26.935,39.926 27.023,39.65 26.943,39.398C26.861,39.146 26.625,38.975 26.363,38.975L25.471,38.975C27.129,36.873 29.037,34.99 31.156,33.35C31.34,33.451 31.523,33.533 31.705,33.592C32.857,34.475 34.139,35.156 35.504,35.611C35.73,35.687 36.084,35.791 36.197,35.82C35.521,36.508 35.078,37.42 34.857,37.869C34.836,37.908 34.824,37.941 34.81,37.969C32.722,39.84 30.894,41.99 29.361,44.359C25.776,46.43 22.454,48.734 19.466,51.223ZM34.872,41.459C33.778,41.98 32.702,42.525 31.643,43.088C32.483,41.982 33.397,40.934 34.376,39.951C34.368,40.092 34.362,40.234 34.362,40.377C34.362,40.508 34.366,40.637 34.372,40.766C34.389,41.07 34.643,41.303 34.94,41.303L34.973,41.303C35.285,41.287 35.528,41.018 35.51,40.703C35.504,40.596 35.502,40.488 35.502,40.377C35.502,39.66 35.631,38.975 35.868,38.391C35.872,38.385 35.875,38.379 35.877,38.373C36.104,37.912 36.698,36.689 37.483,36.238C37.555,36.197 37.627,36.16 37.696,36.125C37.925,36.012 37.864,36.043 38.106,35.943C38.671,35.73 39.147,35.703 39.442,35.764C39.581,35.795 39.722,35.773 39.847,35.701C42.466,34.182 45.272,33.184 48.198,32.727C48.122,32.916 48.056,33.111 47.997,33.309C47.909,33.611 48.083,33.926 48.385,34.016C48.44,34.033 48.491,34.037 48.544,34.037C48.792,34.037 49.022,33.877 49.094,33.629C49.206,33.238 49.36,32.867 49.542,32.523C49.559,32.498 49.521,32.559 49.702,32.293C49.935,31.949 50.705,31.543 51.795,31.543C51.802,31.543 51.814,31.541 51.822,31.541C51.83,31.541 51.841,31.543 51.849,31.543C52.939,31.543 53.744,31.928 53.941,32.293C54.148,32.674 54.367,33.24 54.482,33.631C54.554,33.879 54.783,34.039 55.031,34.039C55.083,34.039 55.136,34.033 55.189,34.018C55.492,33.928 55.667,33.613 55.578,33.311C55.517,33.109 55.449,32.912 55.376,32.717C56.853,32.946 58.308,33.314 59.724,33.816C50.886,35.236 42.545,37.799 34.872,41.459ZM65.127,33.094C64.744,33.135 64.363,33.176 63.994,33.219C63.309,33.301 62.633,33.387 61.955,33.482C59.658,32.455 57.24,31.781 54.767,31.479C54.222,30.818 53.121,30.404 51.855,30.404C51.844,30.404 51.836,30.406 51.828,30.406C51.818,30.406 51.807,30.404 51.801,30.404C51.274,30.404 50.781,30.475 50.344,30.604C51.185,29.375 51.804,28.02 52.181,26.594C56.841,26.756 61.386,27.912 65.521,29.973C65.177,30.764 65.045,31.807 65.127,33.094ZM27.202,61.947C27.216,61.98 27.229,62.009 27.249,62.039C27.241,62.115 27.223,62.23 27.186,62.41C26.909,63.682 26.768,64.984 26.768,66.289C26.768,66.699 26.782,67.109 26.811,67.516C26.581,67.432 25.68,66.994 25.104,65.197C25.745,64.096 26.446,63.012 27.202,61.947ZM28.388,73.807C28.878,74.9 29.476,75.945 30.159,76.941L30.159,79.611L29.591,79.611C29.388,79.611 29.2,79.717 29.101,79.891L27.894,81.947C25.343,79.367 23.208,76.357 21.623,73.014C22.313,70.791 23.242,68.611 24.385,66.479C24.691,67.119 25.07,67.635 25.519,68.031C26.081,68.523 26.553,68.635 26.642,68.654C26.679,68.662 26.715,68.666 26.752,68.666C26.81,68.666 26.865,68.656 26.916,68.639C27.147,70.408 27.64,72.139 28.388,73.807ZM72.604,30.219C72.792,29.951 72.979,29.881 72.983,29.881L76.933,30.068C76.54,30.293 76.202,30.604 75.94,30.994C75.845,31.133 75.77,31.277 75.702,31.428L72.243,31.584C72.279,30.83 72.459,30.426 72.604,30.219ZM75.729,33.939L72.741,35.008C72.635,34.658 72.532,34.254 72.44,33.783C72.438,33.777 72.438,33.773 72.436,33.766C72.37,33.412 72.323,33.092 72.29,32.799L75.436,32.656C75.438,32.844 75.454,33.035 75.493,33.223C75.541,33.479 75.621,33.717 75.729,33.939ZM66.863,30.066C67.121,29.715 67.392,29.635 67.469,29.619L71.428,29.807C70.937,30.748 70.877,32.197 71.258,34.119C71.258,34.131 71.262,34.143 71.265,34.156C71.646,36.008 72.242,37.279 73.033,37.947L69.884,39.418C69.841,39.434 69.8,39.451 69.761,39.477L69.447,39.623C69.423,39.629 69.384,39.635 69.324,39.635C68.461,39.635 67.293,38.406 66.607,34.965C66.002,31.834 66.509,30.553 66.863,30.066ZM57.64,39.676C62.513,40.512 66.874,42.365 70.263,45.047C70.367,45.129 70.493,45.17 70.616,45.17C70.784,45.17 70.952,45.096 71.063,44.955C71.259,44.707 71.216,44.348 70.972,44.152C67.866,41.695 63.991,39.906 59.663,38.918C61.669,38.195 63.729,37.533 65.841,36.941C66.872,40.299 68.417,40.852 69.321,40.852C69.612,40.852 69.804,40.79 69.856,40.773C69.876,40.764 69.893,40.756 69.913,40.752L69.987,40.715C73.341,44.391 75.64,48.893 76.724,53.807C72.833,46.996 63.362,42.051 52.587,41.83C54.23,41.068 55.912,40.348 57.64,39.676ZM70.75,49.795C70.722,49.675 70.679,49.568 70.623,49.476C72.64,50.788 74.265,52.319 75.371,54.003C73.972,52.8 72.23,51.731 70.232,50.815C70.253,50.81 70.271,50.806 70.294,50.802C70.501,50.751 70.738,50.571 70.779,50.212C70.798,50.083 70.783,49.94 70.75,49.795ZM50.173,43.006C50.727,42.979 51.285,42.963 51.839,42.963C56.492,42.963 60.912,43.869 64.734,45.441C60.957,44.186 56.691,43.514 52.318,43.514C51.181,43.514 50.055,43.559 48.94,43.648C49.345,43.43 49.759,43.217 50.173,43.006ZM44.727,46.049C44.612,46.201 44.54,46.391 44.54,46.598C44.54,47.09 44.936,47.492 45.423,47.492C45.907,47.492 46.305,47.092 46.305,46.598C46.305,46.106 45.909,45.705 45.423,45.705C45.372,45.705 45.321,45.709 45.276,45.719C45.629,45.508 45.977,45.297 46.336,45.09C48.282,44.801 50.291,44.654 52.317,44.654C59.171,44.654 65.487,46.346 70.016,49.094C69.973,49.094 69.921,49.1 69.88,49.111C69.673,49.162 69.438,49.342 69.393,49.702C69.378,49.83 69.391,49.973 69.423,50.118C69.464,50.286 69.532,50.429 69.618,50.542C68.653,50.125 67.628,49.747 66.556,49.405C66.068,48.587 65.66,48.009 65.638,47.974C65.539,47.831 65.384,47.745 65.215,47.724C65.215,47.7 65.222,47.673 65.222,47.647C65.222,47.188 64.851,46.813 64.392,46.813C63.935,46.813 63.564,47.188 63.564,47.647C63.564,47.669 63.568,47.692 63.57,47.714L60.919,47.714C60.728,47.714 60.548,47.804 60.435,47.956C57.849,47.538 55.109,47.31 52.285,47.31C48.306,47.31 44.395,47.757 40.833,48.614C42.083,47.729 43.386,46.873 44.727,46.049ZM58.41,50.697L56.377,53.449C54.98,52.959 53.315,52.693 51.586,52.693L51.578,52.693C49.778,52.693 48.044,52.982 46.612,53.512L44.559,50.732C46.813,50.317 49.177,50.102 51.585,50.102C53.927,50.103 56.22,50.308 58.41,50.697ZM35.834,53.662C36.959,53.064 38.168,52.539 39.447,52.086C38.693,53.32 37.623,54.566 36.441,54.566C36.248,54.566 35.996,54.539 35.9,54.406C35.858,54.35 35.759,54.158 35.834,53.662ZM34.612,54.359C34.641,54.549 34.694,54.725 34.77,54.883L33.794,54.883C34.059,54.705 34.331,54.531 34.612,54.359ZM32.292,56.025L35.157,56.025C35.268,56.383 35.393,56.738 35.526,57.094L31.142,57.094C31.495,56.729 31.882,56.371 32.292,56.025ZM30.161,58.236L35.964,58.236C36.091,58.574 36.218,58.926 36.339,59.305L29.44,59.305C29.653,58.943 29.895,58.586 30.161,58.236ZM28.858,60.445L36.667,60.445C36.747,60.781 36.823,61.133 36.893,61.514L28.483,61.514C28.581,61.156 28.708,60.799 28.858,60.445ZM30.918,63.59L29.564,62.656L37.058,62.656C37.095,62.994 37.125,63.35 37.15,63.725L31.056,63.725C31.018,63.674 30.972,63.627 30.918,63.59ZM31.073,64.867L37.192,64.867C37.196,65.014 37.198,65.166 37.198,65.32C37.198,65.535 37.198,65.738 37.202,65.936L31.009,65.936C31.018,65.58 31.04,65.225 31.073,64.867ZM31.028,67.078L37.227,67.078C37.241,67.465 37.259,67.82 37.288,68.148L31.124,68.148C31.079,67.795 31.045,67.438 31.028,67.078ZM31.317,69.289L37.421,69.289C37.483,69.678 37.563,70.029 37.655,70.359L31.58,70.359C31.479,70.006 31.39,69.65 31.317,69.289ZM31.959,71.498L38.08,71.498C38.234,71.846 38.416,72.195 38.625,72.568L32.408,72.568C32.247,72.219 32.095,71.861 31.959,71.498ZM32.997,73.711L39.28,73.711C39.284,73.715 39.284,73.719 39.288,73.723C39.473,74.037 39.678,74.391 39.901,74.781L33.657,74.781C33.423,74.432 33.204,74.074 32.997,73.711ZM34.493,75.92L40.538,75.92C40.624,76.074 40.71,76.232 40.796,76.398C40.907,76.598 41.018,76.795 41.126,76.992L35.42,76.992C35.095,76.645 34.788,76.289 34.493,75.92ZM36.591,78.131L41.81,78.131C42.048,78.512 42.291,78.869 42.535,79.209L37.906,79.209C37.448,78.867 37.011,78.506 36.591,78.131ZM42.872,81.971C41.719,81.516 40.622,80.971 39.598,80.35L42.872,80.35L42.872,81.971ZM42.872,77.527C42.534,76.998 42.202,76.424 41.874,75.818C41.272,74.697 40.756,73.814 40.344,73.107C38.788,70.445 38.419,69.811 38.419,65.32C38.419,61.203 37.563,58.98 36.872,57.193C36.685,56.711 36.509,56.248 36.362,55.785C36.388,55.787 36.415,55.789 36.442,55.789C37.019,55.789 37.556,55.617 38.046,55.336C38.089,55.986 38.173,56.693 38.298,57.453C38.431,58.252 38.696,58.941 38.98,59.674C39.515,61.064 40.122,62.637 40.122,65.67C40.122,69.498 40.509,70.158 41.786,72.344C42.098,72.881 42.452,73.488 42.872,74.262L42.872,77.527ZM51.518,80.941C50.544,80.941 49.637,80.621 48.935,80.068C49.152,80.098 49.359,80.115 49.556,80.115C50.424,80.115 51.097,79.834 51.494,79.609C51.892,79.834 52.564,80.115 53.433,80.115C53.58,80.115 53.74,80.105 53.902,80.088C53.244,80.586 52.423,80.941 51.518,80.941ZM55.455,78.205C54.908,78.568 54.423,78.754 54.017,78.836C52.933,79.051 52.175,78.613 51.947,78.457C51.842,78.346 51.703,78.279 51.56,78.268C51.367,78.246 51.166,78.314 51.029,78.467C50.783,78.633 50.035,79.045 48.979,78.836C48.583,78.756 48.12,78.584 47.594,78.242L47.594,74.721C47.594,72.945 48.426,72.047 49.305,71.098C50.512,69.795 51.88,68.322 50.572,64.736C49.906,62.916 50.475,61.74 51.021,60.604C51.14,60.363 51.25,60.131 51.347,59.895C51.396,59.787 51.437,59.664 51.48,59.533C51.521,59.666 51.566,59.791 51.613,59.902C51.715,60.137 51.828,60.369 51.949,60.611C52.508,61.744 53.088,62.916 52.41,64.732C51.068,68.324 52.471,69.801 53.707,71.104C54.605,72.051 55.457,72.949 55.457,74.721L55.455,78.205ZM58.945,73.863C58.148,75.344 57.383,76.402 56.674,77.15L56.674,74.72C56.674,72.458 55.568,71.292 54.59,70.263C53.408,69.019 52.478,68.034 53.549,65.157C54.412,62.845 53.619,61.243 53.041,60.071C52.928,59.841 52.822,59.626 52.732,59.421C52.304,58.421 52.121,55.96 52.086,55.095C52.072,54.78 51.824,54.532 51.51,54.513C51.502,54.513 51.494,54.511 51.486,54.511C51.484,54.509 51.478,54.511 51.469,54.511C51.463,54.511 51.457,54.509 51.451,54.511C51.441,54.511 51.43,54.513 51.42,54.513C51.113,54.536 50.863,54.782 50.852,55.097C50.82,55.96 50.637,58.423 50.22,59.425C50.134,59.63 50.03,59.847 49.919,60.075C49.355,61.245 48.581,62.847 49.421,65.153C50.472,68.038 49.562,69.022 48.405,70.267C47.45,71.296 46.37,72.462 46.37,74.72L46.37,77.21C45.649,76.458 44.862,75.386 44.044,73.862C43.567,72.976 43.163,72.284 42.839,71.726C41.63,69.657 41.343,69.165 41.343,65.667C41.343,62.407 40.663,60.646 40.116,59.231C39.847,58.53 39.614,57.925 39.505,57.249C39.325,56.183 39.236,55.228 39.234,54.409C39.234,54.401 39.23,54.388 39.23,54.38C40.085,53.485 40.726,52.356 41.116,51.558C41.913,52.62 42.605,53.792 43.177,55.054C43.282,55.282 43.503,55.413 43.736,55.413C43.822,55.413 43.906,55.395 43.988,55.358C44.296,55.218 44.431,54.856 44.294,54.548C43.751,53.354 43.107,52.233 42.371,51.2C42.658,51.128 42.947,51.063 43.238,50.999L45.576,54.163C45.529,54.306 45.533,54.466 45.601,54.612C45.705,54.835 45.925,54.966 46.156,54.966C46.242,54.966 46.328,54.948 46.412,54.909C47.806,54.265 49.641,53.911 51.578,53.911L51.586,53.911C53.524,53.911 55.359,54.265 56.752,54.909C56.832,54.948 56.92,54.966 57.008,54.966C57.237,54.966 57.459,54.835 57.564,54.612C57.66,54.401 57.626,54.163 57.494,53.989L61.227,48.933L64.822,48.933C66.604,51.542 67.381,53.761 67.072,54.36C67.045,54.409 66.965,54.561 66.502,54.561C64.621,54.561 63.002,51.373 62.535,50.144C62.418,49.828 62.063,49.668 61.75,49.789C61.666,49.82 61.594,49.868 61.535,49.927C61.485,49.959 61.438,49.997 61.397,50.045C60.285,51.374 59.34,52.889 58.586,54.547C58.447,54.855 58.586,55.217 58.893,55.357C58.975,55.393 59.061,55.412 59.145,55.412C59.377,55.412 59.6,55.279 59.702,55.053C60.284,53.771 60.991,52.584 61.801,51.506C62.02,51.961 62.322,52.531 62.7,53.107C63.044,53.625 63.395,54.068 63.755,54.436C63.751,55.248 63.659,56.195 63.485,57.248C63.368,57.953 63.126,58.656 62.842,59.469C62.309,61.006 61.645,62.916 61.645,65.666C61.645,69.164 61.36,69.654 60.151,71.723C59.826,72.285 59.418,72.979 58.945,73.863ZM70.886,56.025C71.295,56.371 71.681,56.727 72.031,57.094L67.47,57.094C67.591,56.734 67.703,56.377 67.804,56.025L70.886,56.025ZM68.173,54.885C68.267,54.693 68.322,54.473 68.347,54.225C68.701,54.441 69.044,54.662 69.374,54.885L68.173,54.885ZM73.013,58.236C73.284,58.586 73.52,58.943 73.735,59.305L66.72,59.305C66.837,58.936 66.956,58.578 67.075,58.236L73.013,58.236ZM65.156,79.193L60.416,79.193C60.658,78.859 60.896,78.505 61.134,78.131L66.455,78.131C66.043,78.502 65.607,78.855 65.156,79.193ZM60.181,77.504L60.181,74.148C60.575,73.424 60.909,72.854 61.206,72.344C62.479,70.158 62.866,69.498 62.866,65.67C62.866,63.127 63.466,61.399 63.995,59.873C64.284,59.043 64.554,58.26 64.69,57.453C64.811,56.707 64.895,56.01 64.938,55.367C65.446,55.646 65.966,55.789 66.499,55.789C66.563,55.789 66.624,55.785 66.685,55.781C66.532,56.328 66.337,56.891 66.122,57.504C65.45,59.443 64.612,61.858 64.612,65.32C64.612,69.822 64.241,70.459 62.683,73.127C62.267,73.836 61.753,74.717 61.153,75.838C60.834,76.43 60.509,76.986 60.181,77.504ZM60.181,80.334L63.472,80.334C62.444,80.961 61.341,81.51 60.181,81.969L60.181,80.334ZM67.623,76.99L61.816,76.99C61.929,76.789 62.045,76.586 62.156,76.377C62.24,76.221 62.324,76.068 62.406,75.92L68.55,75.92C68.259,76.289 67.947,76.645 67.623,76.99ZM69.386,74.779L63.042,74.779C63.27,74.383 63.477,74.029 63.663,73.711L70.048,73.711C69.843,74.074 69.621,74.432 69.386,74.779ZM70.636,72.568L64.319,72.568C64.528,72.193 64.71,71.844 64.868,71.498L71.087,71.498C70.947,71.861 70.802,72.219 70.636,72.568ZM71.466,70.359L65.289,70.359C65.384,70.027 65.462,69.676 65.525,69.289L71.73,69.289C71.654,69.65 71.566,70.006 71.466,70.359ZM71.923,68.148L65.662,68.148C65.687,67.82 65.71,67.463 65.724,67.078L72.021,67.078C71.998,67.438 71.968,67.795 71.923,68.148ZM65.75,65.938C65.75,65.739 65.752,65.536 65.752,65.321C65.752,65.167 65.756,65.017 65.759,64.868L71.97,64.868C72.004,65.222 72.027,65.581 72.035,65.938L65.75,65.938ZM72.125,63.59C72.07,63.627 72.023,63.674 71.986,63.727L65.816,63.727C65.847,63.359 65.886,63 65.935,62.658L73.482,62.658L72.125,63.59ZM66.134,61.516C66.211,61.145 66.296,60.789 66.39,60.447L74.316,60.447C74.464,60.801 74.589,61.158 74.691,61.516L66.134,61.516ZM72.125,82.01C71.812,82.01 71.556,82.264 71.556,82.58L71.556,84.336C71.261,84.574 70.959,84.807 70.66,85.037L70.66,79.629C74.17,75.994 76.281,71.346 76.281,66.289C76.281,65.256 76.189,64.223 76.013,63.205C76.076,63.101 76.074,62.976 76.101,62.85C76.144,62.648 76.109,62.454 76.101,62.373C75.719,58.113 72.564,54.34 67.767,51.717C67.654,51.453 67.523,51.178 67.377,50.887C67.494,50.928 67.609,50.969 67.726,51.012C72.008,52.609 75.248,54.867 76.857,57.373C76.912,57.459 76.986,57.525 77.072,57.57C77.26,58.279 77.384,59 77.439,59.732C77.445,59.961 77.449,60.191 77.449,60.42C77.449,60.828 77.541,71.621 76.678,73.346C75.799,75.115 74.103,75.527 74.031,75.539C73.734,75.594 73.537,75.865 73.568,76.158C73.564,76.176 73.56,76.193 73.56,76.213L73.56,82.008L72.125,82.01ZM75.559,84.139L72.696,84.139L72.696,83.15L75.559,83.15L75.559,84.139ZM80.927,45.355C81.192,45.355 81.425,45.184 81.509,44.932L82.032,43.322L82.553,44.932C82.635,45.184 82.868,45.355 83.135,45.355L84.827,45.355L83.456,46.35C83.241,46.506 83.153,46.783 83.235,47.033L83.757,48.643L82.386,47.648C82.282,47.572 82.155,47.531 82.03,47.531C81.901,47.531 81.776,47.572 81.672,47.648L80.301,48.643L80.822,47.033C80.906,46.783 80.816,46.508 80.601,46.35L79.232,45.355L80.927,45.355ZM79.918,44.135L77.355,44.135C77.088,44.135 76.855,44.305 76.775,44.555C76.691,44.809 76.781,45.084 76.996,45.24L79.527,47.08L78.56,50.057C78.48,50.308 78.57,50.586 78.783,50.741C78.889,50.819 79.014,50.858 79.141,50.858C79.266,50.858 79.393,50.819 79.5,50.741L81.946,48.964C83.016,52.226 83.559,55.634 83.559,59.103C83.559,67.466 80.418,75.36 74.696,81.419L74.696,76.538C75.463,76.284 76.967,75.575 77.725,73.8C78.559,71.843 78.584,63.071 78.584,62.077L78.584,60.425C78.584,52.81 75.922,45.667 71.067,40.214L75.787,38.011C77.388,39.883 78.775,41.936 79.918,44.135ZM74.475,37.273C74.425,37.275 74.206,37.273 73.964,37.117C73.768,36.992 73.481,36.721 73.186,36.146L76.52,34.953C76.95,35.305 77.477,35.537 78.044,35.607L74.475,37.273ZM79.879,33.633C79.615,34.023 79.22,34.287 78.756,34.377C78.644,34.4 78.529,34.412 78.416,34.412C77.578,34.412 76.853,33.814 76.688,32.992C76.598,32.531 76.692,32.061 76.955,31.672C77.218,31.283 77.615,31.018 78.076,30.926C78.189,30.904 78.305,30.893 78.418,30.893C79.256,30.893 79.98,31.49 80.144,32.311C80.232,32.773 80.14,33.242 79.879,33.633ZM80.923,34.266C81.343,33.615 81.492,32.838 81.343,32.076C81.191,31.305 80.742,30.65 80.136,30.221L82.632,30.338L83.195,33.205L80.923,34.266ZM84.302,32.506L83.919,30.559L85.956,31.17L84.302,32.506ZM51.565,71.52L51.49,71.52C49.104,71.547 47.813,73.139 47.813,74.629C47.813,76.25 48.688,76.713 49.501,76.859C49.855,77.533 50.642,77.988 51.53,77.988C52.418,77.988 53.206,77.533 53.557,76.859C54.37,76.713 55.245,76.25 55.245,74.629C55.245,73.139 53.954,71.547 51.565,71.52ZM53.744,74.369C53.744,73.98 53.598,73.621 53.355,73.326C53.793,73.686 54.023,74.166 54.023,74.629C54.023,75.473 53.795,75.629 53.07,75.691C53.482,75.361 53.744,74.893 53.744,74.369ZM52.521,76.168C52.455,76.463 52.066,76.768 51.529,76.768C50.99,76.768 50.603,76.463 50.537,76.168C50.479,75.906 50.261,75.713 49.993,75.691C49.264,75.629 49.036,75.473 49.036,74.629C49.036,73.947 49.528,73.232 50.459,72.912C49.936,73.238 49.594,73.768 49.594,74.369C49.594,75.359 50.525,76.166 51.67,76.166C52.006,76.166 52.325,76.096 52.606,75.971C52.564,76.031 52.537,76.096 52.521,76.168ZM52.521,74.369C52.521,74.676 52.123,74.945 51.667,74.945C51.211,74.945 50.813,74.674 50.813,74.369C50.813,74.064 51.21,73.795 51.667,73.795C52.124,73.795 52.521,74.062 52.521,74.369ZM58.265,46.598C58.265,46.107 58.661,45.705 59.149,45.705C59.632,45.705 60.03,46.105 60.03,46.598C60.03,47.091 59.634,47.492 59.149,47.492C58.662,47.49 58.265,47.09 58.265,46.598ZM52.525,46.068C52.525,46.58 52.109,46.996 51.596,46.996C51.084,46.996 50.666,46.58 50.666,46.068C50.666,45.555 51.084,45.139 51.596,45.139C52.109,45.14 52.525,45.557 52.525,46.068ZM43.106,56.617C42.567,57.225 42.126,57.914 41.794,58.652C41.692,58.879 41.471,59.01 41.237,59.01C41.151,59.01 41.067,58.992 40.985,58.957C40.678,58.816 40.542,58.455 40.678,58.148C41.061,57.295 41.569,56.508 42.188,55.807C42.409,55.553 42.796,55.529 43.051,55.752C43.302,55.979 43.329,56.363 43.106,56.617ZM58.025,56.617C57.801,56.363 57.828,55.977 58.082,55.756C58.334,55.531 58.724,55.555 58.943,55.811C59.561,56.512 60.07,57.299 60.453,58.152C60.592,58.459 60.455,58.82 60.146,58.961C60.064,58.996 59.98,59.014 59.896,59.014C59.662,59.014 59.439,58.881 59.336,58.656C59.007,57.912 58.562,57.227 58.025,56.617ZM60.545,65.57C60.353,63.447 59.068,61.908 57.5,61.908C55.933,61.908 54.654,63.445 54.455,65.561C54.425,65.893 54.666,66.191 54.998,66.225C55.002,66.293 55.017,66.363 55.041,66.426C55.074,66.508 55.877,68.443 57.515,68.443C58.908,68.443 59.633,67.045 59.847,66.549C59.909,66.457 59.943,66.348 59.947,66.236C59.963,66.236 59.978,66.236 59.996,66.234C60.33,66.203 60.576,65.906 60.545,65.57ZM57.552,66.764C57.198,66.764 56.907,66.475 56.907,66.119C56.907,65.762 57.196,65.473 57.552,65.473C57.908,65.473 58.198,65.76 58.198,66.119C58.197,66.475 57.908,66.764 57.552,66.764ZM57.513,63.953C56.821,63.953 56.276,64.303 55.874,64.709C56.196,63.773 56.821,63.129 57.499,63.129C58.179,63.129 58.804,63.777 59.124,64.717C58.742,64.303 58.214,63.953 57.513,63.953ZM45.442,61.908C43.874,61.908 42.589,63.447 42.394,65.57C42.366,65.906 42.614,66.203 42.95,66.234C42.966,66.236 42.98,66.236 42.997,66.236C43.003,66.348 43.034,66.459 43.098,66.549C43.311,67.043 44.036,68.443 45.43,68.443C47.067,68.443 47.868,66.508 47.901,66.426C47.928,66.363 47.942,66.293 47.946,66.225C48.278,66.191 48.52,65.896 48.491,65.561C48.29,63.445 47.011,61.908 45.442,61.908ZM45.388,66.764C45.034,66.764 44.745,66.475 44.745,66.119C44.745,65.762 45.034,65.473 45.388,65.473C45.743,65.473 46.034,65.76 46.034,66.119C46.036,66.475 45.745,66.764 45.388,66.764ZM45.427,63.953C44.731,63.953 44.198,64.303 43.817,64.717C44.134,63.779 44.761,63.129 45.442,63.129C46.12,63.129 46.745,63.775 47.067,64.709C46.667,64.303 46.122,63.953 45.427,63.953Z" style="fill:white;fill-rule:nonzero;"/>
    </g>
</svg>
