<?xml version="1.0" encoding="UTF-8" standalone="no"?>
<!DOCTYPE svg PUBLIC "-//W3C//DTD SVG 1.1//EN" "http://www.w3.org/Graphics/SVG/1.1/DTD/svg11.dtd">
<svg width="100%" height="100%" viewBox="0 0 80 80" version="1.1" xmlns="http://www.w3.org/2000/svg" xmlns:xlink="http://www.w3.org/1999/xlink" xml:space="preserve" xmlns:serif="http://www.serif.com/" style="fill-rule:evenodd;clip-rule:evenodd;stroke-linejoin:round;stroke-miterlimit:2;">
    <g transform="matrix(1,0,0,1,-10,-9.917)">
        <path d="M26.737,51.408L25.723,52.422C25.535,52.61 25.43,52.864 25.43,53.13C25.43,53.396 25.535,53.65 25.723,53.838L27.206,55.321L23.211,59.313C23.023,59.501 22.918,59.755 22.918,60.021C22.918,60.286 23.023,60.541 23.211,60.729L38.897,76.404C39.092,76.599 39.348,76.696 39.604,76.696C39.86,76.696 40.116,76.598 40.311,76.404L44.306,72.412L45.839,73.944C46.034,74.139 46.29,74.236 46.546,74.236C46.802,74.236 47.058,74.138 47.253,73.944L48.269,72.929L64.657,89.306C64.852,89.501 65.108,89.598 65.364,89.598C65.62,89.598 65.876,89.5 66.071,89.306L71.569,83.811C73.229,82.151 74.112,79.855 73.989,77.511L72.482,48.732L85.72,35.498C87.263,33.956 88.272,31.915 88.56,29.754L89.696,21.223C90.109,18.117 89.075,15.063 86.858,12.847C84.641,10.629 81.587,9.593 78.473,10.008L69.937,11.143C67.774,11.431 65.733,12.438 64.19,13.98L51.002,27.159L22.095,25.647C19.758,25.515 17.452,26.405 15.791,28.065L10.293,33.56C10.105,33.747 10,34.001 10,34.267C10,34.533 10.105,34.787 10.293,34.975L26.737,51.408ZM59.479,21.515L68.122,30.153L36.488,61.768L27.845,53.13L59.479,21.515ZM39.604,74.28L25.333,60.019L28.621,56.734L42.891,70.995L39.604,74.28ZM46.546,71.82L37.903,63.182L69.538,31.567L78.181,40.205L46.546,71.82ZM71.99,77.612C72.084,79.391 71.415,81.133 70.154,82.393L65.363,87.182L49.683,71.512L70.577,50.631L71.99,77.612ZM65.604,15.395C66.838,14.162 68.47,13.355 70.201,13.125L78.737,11.99C81.227,11.66 83.67,12.487 85.444,14.261C87.216,16.033 88.044,18.474 87.714,20.959L86.578,29.489C86.348,31.218 85.541,32.849 84.307,34.083L79.597,38.79L60.896,20.1L65.604,15.395ZM17.205,29.479C18.466,28.219 20.201,27.549 21.99,27.643L49.098,29.061L28.152,49.994L12.415,34.267L17.205,29.479Z" style="fill:white;fill-rule:nonzero;"/>
        <path d="M78.18,32.828C78.437,32.828 78.694,32.73 78.889,32.534L81.147,30.265C82.168,29.24 82.813,27.883 82.962,26.444L83.447,21.818C83.505,21.269 83.106,20.776 82.557,20.719C82,20.659 81.515,21.061 81.458,21.609L80.973,26.235C80.869,27.221 80.428,28.152 79.728,28.854L77.47,31.123C77.08,31.515 77.082,32.148 77.474,32.538C77.67,32.731 77.925,32.828 78.18,32.828Z" style="fill:white;fill-rule:nonzero;"/>
        <path d="M18.805,70.53C19.061,70.53 19.317,70.432 19.512,70.238L23.361,66.392C23.752,66.001 23.752,65.368 23.361,64.977C22.97,64.586 22.338,64.587 21.947,64.977L18.098,68.823C17.707,69.214 17.707,69.847 18.098,70.238C18.293,70.432 18.549,70.53 18.805,70.53Z" style="fill:white;fill-rule:nonzero;"/>
        <path d="M34.633,76.242C34.242,75.851 33.61,75.852 33.219,76.242L29.37,80.088C28.979,80.479 28.979,81.112 29.37,81.503C29.565,81.698 29.821,81.796 30.077,81.796C30.333,81.796 30.589,81.698 30.784,81.504L34.633,77.658C35.023,77.266 35.023,76.633 34.633,76.242Z" style="fill:white;fill-rule:nonzero;"/>
        <path d="M21.217,79.385C21.473,79.385 21.729,79.287 21.924,79.093L28.997,72.025C29.388,71.634 29.388,71.001 28.997,70.61C28.606,70.219 27.974,70.22 27.583,70.61L20.51,77.678C20.119,78.069 20.119,78.702 20.51,79.093C20.705,79.287 20.961,79.385 21.217,79.385Z" style="fill:white;fill-rule:nonzero;"/>
        <path d="M13.844,16.259C13.291,16.259 12.844,16.707 12.844,17.259L12.844,19.1L11,19.1C10.447,19.1 10,19.548 10,20.1C10,20.652 10.447,21.1 11,21.1L12.844,21.1L12.844,22.942C12.844,23.494 13.291,23.942 13.844,23.942C14.397,23.942 14.844,23.494 14.844,22.942L14.844,21.1L16.687,21.1C17.24,21.1 17.687,20.652 17.687,20.1C17.687,19.548 17.24,19.1 16.687,19.1L14.844,19.1L14.844,17.259C14.844,16.707 14.396,16.259 13.844,16.259Z" style="fill:white;fill-rule:nonzero;"/>
        <path d="M27.851,9.917C27.298,9.917 26.851,10.365 26.851,10.917L26.851,12.25L25.516,12.25C24.963,12.25 24.516,12.698 24.516,13.25C24.516,13.802 24.963,14.25 25.516,14.25L26.851,14.25L26.851,15.583C26.851,16.135 27.298,16.583 27.851,16.583C28.404,16.583 28.851,16.135 28.851,15.583L28.851,14.25L30.186,14.25C30.739,14.25 31.186,13.802 31.186,13.25C31.186,12.698 30.739,12.25 30.186,12.25L28.851,12.25L28.851,10.917C28.851,10.365 28.403,9.917 27.851,9.917Z" style="fill:white;fill-rule:nonzero;"/>
        <path d="M85.669,69.181C85.116,69.181 84.669,69.629 84.669,70.181L84.669,71.957L82.892,71.957C82.339,71.957 81.892,72.405 81.892,72.957C81.892,73.509 82.339,73.957 82.892,73.957L84.669,73.957L84.669,75.732C84.669,76.284 85.116,76.732 85.669,76.732C86.222,76.732 86.669,76.284 86.669,75.732L86.669,73.957L88.446,73.957C88.999,73.957 89.446,73.509 89.446,72.957C89.446,72.405 88.999,71.957 88.446,71.957L86.669,71.957L86.669,70.181C86.669,69.628 86.222,69.181 85.669,69.181Z" style="fill:white;fill-rule:nonzero;"/>
        <path d="M16.687,58.065C17.24,58.065 17.687,57.617 17.687,57.065L17.687,55.115L19.639,55.115C20.192,55.115 20.639,54.667 20.639,54.115C20.639,53.563 20.192,53.115 19.639,53.115L17.687,53.115L17.687,51.166C17.687,50.614 17.24,50.166 16.687,50.166C16.134,50.166 15.687,50.614 15.687,51.166L15.687,53.115L13.736,53.115C13.183,53.115 12.736,53.563 12.736,54.115C12.736,54.667 13.183,55.115 13.736,55.115L15.687,55.115L15.687,57.065C15.687,57.618 16.134,58.065 16.687,58.065Z" style="fill:white;fill-rule:nonzero;"/>
        <path d="M40.299,86.149C41.215,86.649 41.964,87.397 42.465,88.312L43.059,89.397C43.234,89.718 43.571,89.917 43.936,89.917C44.301,89.917 44.638,89.718 44.813,89.397L45.407,88.312C45.909,87.396 46.657,86.648 47.572,86.148L48.658,85.554C48.979,85.379 49.179,85.042 49.179,84.677C49.179,84.312 48.98,83.975 48.658,83.8L47.572,83.206C46.657,82.706 45.909,81.958 45.407,81.042L44.813,79.957C44.463,79.315 43.409,79.315 43.059,79.957L42.465,81.042C41.964,81.957 41.215,82.706 40.299,83.206L39.213,83.8C38.892,83.975 38.692,84.312 38.692,84.677C38.692,85.042 38.891,85.379 39.213,85.554L40.299,86.149ZM43.936,82.479C44.507,83.36 45.255,84.108 46.136,84.678C45.255,85.248 44.507,85.995 43.936,86.877C43.365,85.996 42.617,85.248 41.735,84.678C42.616,84.108 43.364,83.36 43.936,82.479Z" style="fill:white;fill-rule:nonzero;"/>
        <path d="M89.479,56.339L87.916,55.485C86.523,54.724 85.386,53.587 84.624,52.194L83.769,50.632C83.419,49.991 82.365,49.991 82.015,50.632L81.16,52.195C80.398,53.587 79.261,54.724 77.868,55.485L76.305,56.339C75.984,56.514 75.784,56.851 75.784,57.216C75.784,57.581 75.983,57.918 76.305,58.093L77.868,58.948C79.26,59.709 80.398,60.846 81.16,62.238L82.015,63.801C82.19,64.122 82.527,64.321 82.892,64.321C83.257,64.321 83.594,64.122 83.769,63.801L84.624,62.238C85.386,60.847 86.524,59.709 87.916,58.948L89.479,58.093C89.801,57.919 90,57.583 90,57.217C90,56.851 89.801,56.515 89.479,56.339ZM82.892,61.239C81.954,59.543 80.565,58.154 78.869,57.217C80.565,56.279 81.955,54.89 82.892,53.194C83.83,54.89 85.219,56.28 86.915,57.217C85.219,58.154 83.829,59.543 82.892,61.239Z" style="fill:white;fill-rule:nonzero;"/>
        <path d="M37.278,18.109C38.526,18.791 39.546,19.811 40.228,21.058L41.004,22.475C41.18,22.795 41.516,22.995 41.881,22.995C42.246,22.995 42.583,22.795 42.758,22.475L43.533,21.058C44.216,19.811 45.235,18.792 46.483,18.11L47.902,17.335C48.223,17.16 48.423,16.823 48.423,16.458C48.423,16.093 48.224,15.756 47.902,15.581L46.483,14.806C45.235,14.124 44.215,13.105 43.533,11.858L42.758,10.441C42.583,10.121 42.246,9.921 41.881,9.921C41.516,9.921 41.18,10.12 41.004,10.441L40.228,11.859C39.545,13.106 38.526,14.125 37.278,14.807L35.86,15.582C35.539,15.757 35.339,16.094 35.339,16.459C35.339,16.824 35.538,17.161 35.86,17.336L37.278,18.109ZM41.882,12.997C42.711,14.438 43.902,15.628 45.343,16.457C43.902,17.287 42.711,18.477 41.881,19.917C41.052,18.477 39.861,17.286 38.42,16.457C39.861,15.627 41.052,14.437 41.882,12.997Z" style="fill:white;fill-rule:nonzero;"/>
    </g>
</svg>
