<?xml version="1.0" encoding="UTF-8" standalone="no"?>
<!DOCTYPE svg PUBLIC "-//W3C//DTD SVG 1.1//EN" "http://www.w3.org/Graphics/SVG/1.1/DTD/svg11.dtd">
<svg width="100%" height="100%" viewBox="0 0 60 60" version="1.1" xmlns="http://www.w3.org/2000/svg" xmlns:xlink="http://www.w3.org/1999/xlink" xml:space="preserve" xmlns:serif="http://www.serif.com/" style="fill-rule:evenodd;clip-rule:evenodd;stroke-linejoin:round;stroke-miterlimit:2;">
    <g>
        <g>
            <path d="M28,33C28,32.602 28.798,32 30,32C31.221,32 32,32.592 32,33C32,33.408 31.221,34 30,34C28.798,34 28,33.398 28,33M26,39C27.514,39 29.039,38.49 30,37.497C30.961,38.49 32.486,39 34,39C34.552,39 35,38.552 35,38C35,37.448 34.552,37 34,37C33.181,37 31.8,36.729 31.249,35.841C32.857,35.455 34,34.352 34,33C34,31.318 32.243,30 30,30C27.757,30 26,31.318 26,33C26,34.352 27.143,35.455 28.751,35.841C28.2,36.729 26.819,37 26,37C25.448,37 25,37.448 25,38C25,38.552 25.448,39 26,39M11,22C11,20.556 12.582,16.601 13.105,15.553C15.611,10.541 19.461,10 21,10C21.728,10 22.371,10.268 22.858,10.775C23.221,11.152 23.449,11.621 23.601,12.085C25.395,10.763 27.521,10 30,10C32.479,10 34.605,10.763 36.399,12.085C36.551,11.621 36.779,11.152 37.142,10.775C37.629,10.268 38.272,10 39,10C40.539,10 44.389,10.541 46.895,15.553C47.418,16.601 49,20.556 49,22C49,25.084 48.01,27 46.417,27C45.865,27 45.417,26.552 45.417,26C45.417,25.467 45.833,25.032 46.358,25.001C46.551,24.829 47,23.899 47,22C47,21.17 45.764,17.764 45.105,16.447C43.099,12.433 40.167,12 39,12C38.771,12 38.665,12.077 38.585,12.16C38.28,12.475 38.159,13.15 38.128,13.63C42.138,17.939 44,25.492 44,33C44,34.167 43.933,35.255 43.802,36.233C43.734,36.735 43.305,37.1 42.812,37.1C42.768,37.1 42.723,37.097 42.677,37.091C42.13,37.017 41.746,36.514 41.819,35.966C41.939,35.076 42,34.078 42,33C42,22.547 38.29,12 30,12C21.71,12 18,22.547 18,33C18,34.033 18.057,34.996 18.167,35.864C18.238,36.412 17.851,36.913 17.303,36.983C16.757,37.057 16.254,36.667 16.184,36.118C16.062,35.167 16,34.117 16,33C16,25.491 17.862,17.938 21.873,13.629C21.841,13.152 21.721,12.475 21.415,12.16C21.335,12.077 21.229,12 21,12C19.833,12 16.901,12.433 14.895,16.447C14.236,17.764 13,21.17 13,22C13,23.983 13.513,24.905 13.699,25.017C14.251,25.017 14.662,25.456 14.662,26.008C14.662,26.561 14.177,27 13.625,27C12.03,27 11,25.038 11,22M26,26C24.897,26 24,25.103 24,24C24,22.897 24.897,22 26,22C27.103,22 28,22.897 28,24C28,25.103 27.103,26 26,26M34,26C32.897,26 32,25.103 32,24C32,22.897 32.897,22 34,22C35.103,22 36,22.897 36,24C36,25.103 35.103,26 34,26M60,59C60,59.552 59.552,60 59,60C58.448,60 58,59.552 58,59C58,54.687 52.606,51.921 52.552,51.894C52.059,51.646 51.859,51.045 52.107,50.552C52.354,50.059 52.955,49.859 53.447,50.105C53.715,50.239 60,53.446 60,59M7.893,50.552C8.141,51.045 7.941,51.646 7.448,51.894C7.394,51.921 2,54.687 2,59C2,59.552 1.552,60 1,60C0.448,60 0,59.552 0,59C0,53.446 6.285,50.239 6.553,50.105C7.047,49.86 7.646,50.059 7.893,50.552M30,44C19.784,44 11.737,38.053 11.4,37.8C10.958,37.469 10.869,36.843 11.2,36.401C11.531,35.959 12.157,35.869 12.6,36.2C12.677,36.257 20.468,42 30,42C39.556,42 47.323,36.258 47.4,36.2C47.843,35.869 48.47,35.959 48.8,36.4C49.131,36.842 49.042,37.469 48.6,37.8C48.263,38.053 40.216,44 30,44M30,56C23.441,56 17.229,53.924 12,49.992L12,44.735C16.676,49.229 23.019,52 30,52C36.981,52 43.324,49.229 48,44.735L48,49.992C42.772,53.924 36.559,56 30,56M30,2C43.233,2 54,12.767 54,26C54,31.841 51.9,37.199 48.419,41.365C48.289,41.46 48.18,41.578 48.108,41.724C43.705,46.789 37.222,50 30,50C16.767,50 6,39.233 6,26C6,12.767 16.767,2 30,2M5,2C5.551,2 6,2.449 6,3C6,3.551 5.551,4 5,4C4.449,4 4,3.551 4,3C4,2.449 4.449,2 5,2M56,26C56,11.664 44.336,0 30,0C19.203,0 9.925,6.617 6,16.007L6,5.816C7.162,5.401 8,4.302 8,3C8,1.346 6.654,0 5,0C3.346,0 2,1.346 2,3C2,4.302 2.838,5.401 4,5.815L4,26C4,32.303 6.255,38.087 10,42.593L10,50.486C10,50.794 10.143,51.086 10.386,51.275C16.048,55.675 22.83,58 30,58C37.17,58 43.953,55.675 49.614,51.275C49.857,51.086 50,50.794 50,50.486L50,42.593C53.745,38.087 56,32.303 56,26" style="fill:white;"/>
        </g>
    </g>
</svg>
