<?xml version="1.0" encoding="UTF-8" standalone="no"?>
<!DOCTYPE svg PUBLIC "-//W3C//DTD SVG 1.1//EN" "http://www.w3.org/Graphics/SVG/1.1/DTD/svg11.dtd">
<svg width="100%" height="100%" viewBox="0 0 63 63" version="1.1" xmlns="http://www.w3.org/2000/svg" xmlns:xlink="http://www.w3.org/1999/xlink" xml:space="preserve" xmlns:serif="http://www.serif.com/" style="fill-rule:evenodd;clip-rule:evenodd;stroke-linejoin:round;stroke-miterlimit:2;">
    <g transform="matrix(1,0,0,1,-0.586,-0.572)">
        <g>
            <path d="M59,18.414L59,10.414L63.414,6L58,0.586L53.586,5L45.586,5L42,8.586L33.986,0.572L24.572,9.986L32.586,18L28.6,21.986L29.6,22.986L26.586,26L27.586,27L23.46,31.126L18.27,32.856L10.012,24.598L0.598,34.012L8.586,42L6.14,44.445L4.911,50.324L5.586,51L0.586,56L8,63.414L13,58.414L13.675,59.09L19.554,57.86L22,55.414L30,63.414L39.414,54L31.144,45.73L32.874,40.54L37,36.414L38,37.414L41.014,34.4L42.014,35.4L46,31.414L53.958,39.371L63.372,29.957L55.414,22L59,18.414ZM45,29.586L34.414,19L46,7.414L56.586,18L45,29.586ZM57,10.414L57,15.586L48.414,7L53.586,7L57,10.414ZM60.586,6L58,8.586L55.414,6L58,3.414L60.586,6ZM38,12.586L35.414,10L38,7.414L40.586,10L38,12.586ZM36.586,6L34,8.586L31.4,5.986L33.986,3.4L36.586,6ZM29.986,7.4L32.586,10L30,12.586L27.4,9.986L29.986,7.4ZM31.414,14L34,11.414L36.586,14L34,16.586L31.414,14ZM28.586,46L22,52.586L11.414,42L18,35.414L28.586,46ZM10.012,27.426L12.586,30L6,36.586L3.426,34.012L10.012,27.426ZM7.414,38L14,31.414L16.586,34L10,40.586L7.414,38ZM10.707,53.293L7.089,49.675L7.658,46.955L17.043,56.34L14.324,56.909L10.707,53.293ZM8,60.586L3.414,56L7,52.414L11.586,57L8,60.586ZM19.058,55.527L8.472,44.941L10,43.414L20.586,54L19.058,55.527ZM30,47.414L32.586,50L26,56.586L23.414,54L30,47.414ZM30,60.586L27.414,58L34,51.414L36.586,54L30,60.586ZM19.851,34.437L23.73,33.144L30.856,40.27L29.563,44.148L19.851,34.437ZM32,38.586L25.414,32L29,28.414L35.586,35L32,38.586ZM38,34.586L29.414,26L31.014,24.4L39.6,32.986L38,34.586ZM31.428,21.986L33,20.414L43.586,31L42.014,32.572L31.428,21.986ZM50,27.414L52.586,30L50,32.586L47.414,30L50,27.414ZM51.414,34L54,31.414L56.543,33.957L53.957,36.543L51.414,34ZM57.957,32.543L55.414,30L58,27.414L60.543,29.957L57.957,32.543ZM56.586,26L54,28.586L51.414,26L54,23.414L56.586,26Z" style="fill:white;fill-rule:nonzero;"/>
            <g transform="matrix(0.7071,-0.7071,0.7071,0.7071,-25.2548,27.0294)">
                <rect x="19" y="38.343" width="2" height="11.314" style="fill:white;"/>
            </g>
            <path d="M46,13C43.243,13 41,15.243 41,18C41,20.757 43.243,23 46,23C48.757,23 51,20.757 51,18C51,15.243 48.757,13 46,13ZM46,21C44.346,21 43,19.654 43,18C43,16.346 44.346,15 46,15C47.654,15 49,16.346 49,18C49,19.654 47.654,21 46,21Z" style="fill:white;fill-rule:nonzero;"/>
        </g>
    </g>
</svg>
