<?xml version="1.0" encoding="UTF-8" standalone="no"?>
<!DOCTYPE svg PUBLIC "-//W3C//DTD SVG 1.1//EN" "http://www.w3.org/Graphics/SVG/1.1/DTD/svg11.dtd">
<svg width="100%" height="100%" viewBox="0 0 479 502" version="1.1" xmlns="http://www.w3.org/2000/svg" xmlns:xlink="http://www.w3.org/1999/xlink" xml:space="preserve" xmlns:serif="http://www.serif.com/" style="fill-rule:evenodd;clip-rule:evenodd;stroke-linejoin:round;stroke-miterlimit:2;">
    <g transform="matrix(1,0,0,1,-16.9967,-5.17905)">
        <path d="M231.68,228.863C228.388,228.863 225.68,231.571 225.68,234.863C225.68,238.999 222.276,242.403 218.14,242.403C214.004,242.403 210.6,238.999 210.6,234.863C210.6,231.571 207.892,228.863 204.6,228.863C201.308,228.863 198.6,231.571 198.6,234.863C198.6,245.582 207.421,254.403 218.14,254.403C228.859,254.403 237.68,245.582 237.68,234.863C237.68,231.571 234.972,228.863 231.68,228.863Z" style="fill:white;fill-rule:nonzero;"/>
        <path d="M321.765,228.863C318.473,228.863 315.765,231.571 315.765,234.863C315.765,238.999 312.361,242.403 308.225,242.403C304.089,242.403 300.685,238.999 300.685,234.863C300.685,231.571 297.977,228.863 294.685,228.863C291.393,228.863 288.685,231.571 288.685,234.863L288.685,234.863C288.685,245.582 297.506,254.403 308.225,254.403C318.944,254.403 327.765,245.582 327.765,234.863L327.765,234.863C327.765,231.571 325.057,228.863 321.765,228.863Z" style="fill:white;fill-rule:nonzero;"/>
        <path d="M102.973,153.327C102.259,153.038 101.496,152.89 100.725,152.89C98.284,152.89 96.076,154.38 95.162,156.643C86.437,178.245 81.971,201.332 82.011,224.629C82.011,227.921 84.719,230.629 88.011,230.629C91.303,230.629 94.011,227.921 94.011,224.629C93.972,202.872 98.141,181.311 106.289,161.137C107.521,158.085 106.025,154.56 102.973,153.327Z" style="fill:white;fill-rule:nonzero;"/>
        <path d="M97.067,256.869C96.555,254.022 94.054,251.93 91.162,251.93C87.87,251.93 85.162,254.639 85.162,257.93C85.162,258.335 85.203,258.739 85.284,259.136C86.569,265.814 88.23,272.415 90.259,278.906C91.04,281.403 93.369,283.115 95.986,283.115C99.277,283.115 101.986,280.406 101.986,277.114C101.986,276.507 101.893,275.903 101.712,275.323C99.818,269.264 98.268,263.103 97.067,256.869Z" style="fill:white;fill-rule:nonzero;"/>
        <path d="M407.747,389.248C411.103,386.248 414.389,383.154 417.608,379.925C502.53,294.602 502.504,154.626 417.551,69.334C376.494,28.272 320.746,5.179 262.68,5.179C142.535,5.179 43.671,104.043 43.671,224.188C43.671,224.335 43.671,224.482 43.671,224.629C43.454,282.838 66.517,338.783 107.691,379.929C110.908,383.154 114.291,386.252 117.681,389.246C91.423,396.311 73.027,420.287 73,447.479L73,501C72.998,501.059 72.997,501.119 72.997,501.178C72.997,504.359 75.605,506.982 78.786,507L446.554,507C449.867,507 453,504.313 453,501L453,447.479C452.955,420.11 434.257,396.05 407.747,389.248ZM55.555,224.629C55.555,110.142 148.473,17 262.612,17C376.751,17 469.712,110.142 469.712,224.629C469.927,286.305 442.49,344.94 395,384.294L395,368.813C394.974,368.386 394.903,367.962 394.788,367.55L394.549,366.621C393.944,363.867 391.483,361.888 388.663,361.888C387.461,361.888 386.286,362.248 385.29,362.921C364.191,377.238 340.736,387.732 316,393.921L316,380.946C353.963,374.847 382.163,341.754 382.163,303.305C382.163,298.066 381.639,292.841 380.6,287.706L372.394,246.977C376.934,242.663 379.486,236.652 379.435,230.389C379.295,222.722 375.389,215.595 369,211.353L369,151.383C369,100.95 328.235,60.044 278.009,60.044L263.182,60L243.307,60C195.438,60 156,98.805 156,146.806L156,209.594C144,214.613 134.3,227.114 134.3,241.762C134.347,252.63 139.524,262.862 148.253,269.337L144.6,287.706C143.549,292.867 143.019,298.122 143.019,303.389C143.019,342.137 171.677,375.393 210,381.116L210,394.033C183.79,387.532 159.022,376.198 136.969,360.614C135.833,359.154 134.083,358.298 132.234,358.298C130.299,358.298 128.48,359.234 127.354,360.807L127.09,361.013C126.225,362.461 125.843,364.148 126,365.827L126,380.634C81.257,341.161 55.579,284.295 55.555,224.629ZM262.631,432.259C217.653,432.245 173.885,417.56 138,390.444L138,375.934C212.31,423.497 307.615,424.593 383,378.752L383,393.59C347.919,418.758 305.806,432.287 262.631,432.259ZM383,408.306L383,424.747C308.482,473.597 211.28,472.388 138,421.7L138,405.414C175,430.659 217.518,444.259 262.631,444.259C305.398,444.278 347.249,431.777 383,408.306ZM356.877,241L352.413,241C349.578,241.038 347.128,243.055 346.546,245.83L339.482,278.918C331.795,314.824 299.901,340.778 263.182,341.007C246.053,340.835 229.413,335.229 215.672,325L233.993,325C236.324,329.246 240.787,331.905 245.63,331.934C252.839,331.879 258.738,325.929 258.73,318.72C258.72,311.595 252.855,305.739 245.73,305.739C245.697,305.739 245.663,305.739 245.63,305.739C240.565,305.739 236.173,308 233.993,313L203.238,313C195.227,303.15 189.643,291.552 186.938,279.147L185.002,269.647L185.002,213.236C184.977,210.508 183.11,208.119 180.469,207.436C183.015,189.983 196.377,175.951 213.685,172.554C228.339,169.736 240.938,164.672 251.193,157.51C263.218,167.161 277.554,173.511 292.782,175.932C299.044,176.912 305.36,177.513 311.695,177.732C330.983,178.418 346.464,194.5 346.415,213.8C346.397,217.133 349.083,219.909 352.415,220L356.877,220C362.637,220 367.377,224.74 367.377,230.5C367.377,236.26 362.637,241 356.877,241ZM368.919,290.087C369.78,294.397 370.214,298.782 370.214,303.177C370.214,335.093 347.344,362.771 316,368.787L316,335.409C317,334.551 318.492,333.672 319.623,332.755C335.653,319.746 346.773,301.648 351.135,281.469L357.226,253.169C358.605,253.144 359.979,252.994 361.331,252.722L368.919,290.087ZM304,342.823L304,396.557C276.912,401.705 249.099,401.736 222,396.647L222,342.823C234.687,349.342 248.736,352.771 263,352.831C277.278,352.891 291.355,349.454 304,342.823ZM188.3,313L182.854,313C178.497,313 175.002,309.063 175.002,304.684L175.002,280.55L175.174,281.65C177.659,292.794 182.103,303.41 188.3,313ZM357,203.276C353,182.315 334.37,166.541 311.967,165.737C306.142,165.537 300.334,164.985 294.576,164.082C279.976,161.757 266.354,155.262 255.357,145.382C240.227,131.855 230.859,113.018 229.2,92.791C228.938,89.706 226.325,87.305 223.228,87.305C219.941,87.305 217.235,90.011 217.235,93.298C217.235,93.468 217.243,93.637 217.257,93.806C218.976,114.542 227.741,134.079 242.086,149.151C233.616,154.567 223.072,158.478 211.145,160.771C188.484,165.127 172,183.569 168,206.009L168,146.809C168,105.422 202.055,72 243.307,72L263.114,72L277.941,72.044C321.334,72.117 357,107.843 357,151.236C357,151.285 357,151.334 357,151.383L357,203.276ZM168.992,219L171.885,219C172.292,219.078 172.674,219.253 173,219.509L173,264L168.992,264C156.649,264 146.492,253.843 146.492,241.5C146.492,229.157 156.649,219 168.992,219ZM156.411,290.087L159.523,274.864C160.65,275.188 162,275.455 163,275.664L163,304.685C163,315.685 171.878,325.001 182.852,325.001L197.829,325.001C200.528,327.871 203.447,330.526 206.559,332.943C207.689,333.86 209,334.553 210,335.411L210,368.958C193.451,365.903 178.619,356.791 168.414,343.409C157.003,328.166 152.632,308.75 156.411,290.087ZM441,495L376,495L376,468.815C376,465.523 373.292,462.815 370,462.815C366.708,462.815 364,465.523 364,468.815L364,495L162,495L162,468.815C162,465.523 159.292,462.815 156,462.815C152.708,462.815 150,465.523 150,468.815L150,495L85,495L85,447.479C84.808,423.663 102.428,403.147 126,399.74L126,423.38C126,425.664 126.451,428.137 128.475,429.586C206.949,485.681 312.669,486.957 392.475,432.774C394.641,431.299 395.002,428.657 395.002,426.26L395.002,399.776C395.175,399.645 395.34,399.505 395.513,399.376C420.881,401.157 441.002,422.044 441.002,447.476L441,495Z" style="fill:white;fill-rule:nonzero;"/>
        <path d="M431.263,55.69C441.231,59.056 449.062,66.912 452.398,76.89C453.211,79.336 455.514,80.997 458.091,80.997C460.669,80.997 462.972,79.336 463.785,76.89C467.121,66.912 474.952,59.056 484.92,55.69C487.361,54.873 489.016,52.574 489.016,50C489.016,47.426 487.361,45.127 484.92,44.31C474.952,40.944 467.121,33.088 463.785,23.11C462.972,20.664 460.669,19.003 458.092,19.003C455.514,19.003 453.211,20.664 452.398,23.11C449.062,33.088 441.231,40.944 431.263,44.31C428.822,45.127 427.167,47.426 427.167,50C427.167,52.574 428.822,54.873 431.263,55.69ZM458.092,38.308C461.243,42.878 465.196,46.84 469.76,50C465.196,53.16 461.243,57.122 458.092,61.692C454.941,57.122 450.987,53.16 446.423,50C450.987,46.84 454.941,42.878 458.092,38.308Z" style="fill:white;fill-rule:nonzero;"/>
        <path d="M77.465,370.869C78.036,368.359 76.931,365.748 74.732,364.411C65.752,358.912 59.85,349.51 58.8,339.033C58.499,335.977 55.899,333.621 52.829,333.621C50.731,333.621 48.779,334.721 47.694,336.517C42.239,345.504 32.868,351.425 22.409,352.492C19.353,352.793 16.997,355.393 16.997,358.463C16.997,360.557 18.093,362.505 19.883,363.592C28.863,369.091 34.766,378.493 35.816,388.97C36.117,392.026 38.717,394.382 41.787,394.382C43.885,394.382 45.837,393.282 46.922,391.486C52.377,382.499 61.749,376.578 72.207,375.511C74.769,375.257 76.895,373.38 77.465,370.869ZM44.729,375.4C42.665,370.24 39.684,365.497 35.929,361.4C41.075,359.335 45.804,356.353 49.885,352.6C51.949,357.76 54.93,362.503 58.685,366.6C53.539,368.665 48.811,371.647 44.729,375.4Z" style="fill:white;fill-rule:nonzero;"/>
        <path d="M486,445.25C482.708,445.25 480,447.958 480,451.25L480,451.418C480,454.71 482.708,457.418 486,457.418C489.292,457.418 492,454.71 492,451.418L492,451.25C492,447.958 489.292,445.25 486,445.25Z" style="fill:white;fill-rule:nonzero;"/>
        <path d="M486.436,433.479C489.728,433.479 492.436,430.771 492.436,427.479C492.444,404.228 479.003,382.96 458,372.987C457.197,372.606 456.319,372.409 455.431,372.409C452.139,372.409 449.43,375.117 449.43,378.409C449.43,380.723 450.77,382.84 452.861,383.831C469.691,391.811 480.457,408.853 480.436,427.479C480.436,430.771 483.144,433.479 486.436,433.479Z" style="fill:white;fill-rule:nonzero;"/>
        <ellipse cx="476.038" cy="103" rx="10.985" ry="11" style="fill:white;"/>
        <ellipse cx="487.006" cy="475" rx="7.994" ry="8" style="fill:white;"/>
        <ellipse cx="42.322" cy="75" rx="10.985" ry="11" style="fill:white;"/>
        <ellipse cx="42.322" cy="432" rx="10.985" ry="11" style="fill:white;"/>
        <path d="M427.81,192.879C428.696,197.548 429.395,202.323 429.884,207.07C430.198,210.114 432.792,212.455 435.852,212.455C439.144,212.455 441.853,209.747 441.853,206.455C441.853,206.25 441.842,206.044 441.821,205.84C441.297,200.755 440.549,195.64 439.599,190.64C439.055,187.83 436.571,185.781 433.709,185.781C430.417,185.781 427.709,188.49 427.709,191.781C427.709,192.15 427.743,192.518 427.81,192.88L427.81,192.879Z" style="fill:white;fill-rule:nonzero;"/>
        <path d="M399.2,126.216C403.831,132.67 408.002,139.442 411.682,146.481C414.076,151.065 416.288,155.824 418.254,160.626C419.131,162.961 421.377,164.516 423.871,164.516C427.162,164.516 429.871,161.807 429.871,158.516C429.871,157.677 429.695,156.847 429.354,156.08C427.248,150.935 424.879,145.835 422.312,140.925C413.59,124.232 402.317,109.001 388.9,95.782C387.779,94.685 386.272,94.071 384.704,94.071C381.412,94.071 378.704,96.779 378.704,100.071C378.704,101.669 379.343,103.203 380.477,104.329C387.327,111.081 393.59,118.403 399.2,126.216Z" style="fill:white;fill-rule:nonzero;"/>
    </g>
</svg>
