<?xml version="1.0" encoding="UTF-8" standalone="no"?>
<!DOCTYPE svg PUBLIC "-//W3C//DTD SVG 1.1//EN" "http://www.w3.org/Graphics/SVG/1.1/DTD/svg11.dtd">
<svg width="100%" height="100%" viewBox="0 0 88 84" version="1.1" xmlns="http://www.w3.org/2000/svg" xmlns:xlink="http://www.w3.org/1999/xlink" xml:space="preserve" xmlns:serif="http://www.serif.com/" style="fill-rule:evenodd;clip-rule:evenodd;stroke-linejoin:round;stroke-miterlimit:2;">
    <g transform="matrix(1,0,0,1,-6.26669,-8.40741)">
        <path d="M93.733,40.182L60.324,40.182L50,8.407L39.676,40.182L6.267,40.182L33.295,59.819L22.972,91.593L50,71.956L77.028,91.593L66.705,59.819L93.733,40.182ZM19.089,43.231L40.648,43.231L47.31,52.227L19.089,43.231ZM29.815,80.398L36.497,59.829L47.311,56.141L29.815,80.398ZM81.804,45.081L64.153,57.904L53.244,54.184L81.804,45.081ZM51.016,21.402L57.717,42.024L51.016,51.071L51.016,21.402ZM68.64,81.73L51.016,68.925L51.016,57.297L68.64,81.73Z" style="fill:white;fill-rule:nonzero;"/>
    </g>
</svg>
